<svg xmlns="http://www.w3.org/2000/svg" viewBox="0.0 0.0 809.25505 638.03547" width="355.99532759198786" height="280.9025631780529"><defs><style>.cls-1{fill:#006ac6;}.cls-2{fill:#ffb81c;}</style></defs><title>St. Louis Blues logo</title><path class="cls-1" d="M322.431,353.97l68.5,110.232c8.916,14.34,14.339,27.402,15.928,40.146,9.559,64.037-60.219,117.56-144.97,130.622-80.926,12.744-164.718-14.657-173.318-74.55-7.964-57.668,56.708-107.048,134.768-120.435a240.22124,240.22124,0,0,1,48.427-3.82L0,0H101.633l55.12,88.255c12.1-1.914,20.708-11.149,20.708-26.759,0-12.744-5.415-24.535-28.036-61.488h659.83c-16.89,33.452-54.803,67.864-102.277,87.936l34.095,7.011c-28.036,28.99-68.181,53.842-112.781,67.547l34.405,12.426c-28.672,24.21-64.356,44.925-112.147,56.391l31.22,16.563c-34.412,21.343-71.682,36.318-121.387,43.972l25.17,26.759c-35.048,8.917-67.864,10.83-102.594,8.917l22.938,36.635c-22.938,2.548-53.206-1.27-83.473-10.195Z"/><path class="cls-2" d="M781.051,14.975H176.341c13.698,22.304,17.207,34.73,17.207,46.513,0,21.344-11.473,39.185-43.647,42.694L94.145,14.658H27.552L300.596,453.062a239.59351,239.59351,0,0,0-73.915,1.27c-72.318,12.426-129.034,56.709-122.34,104.183,7.01,49.062,80.608,73.914,156.117,62.13,78.695-12.426,140.5-60.535,132.22-114.377-1.278-10.512-5.733-21.342-13.705-34.412l-89.842-144.01c30.584,12.109,66.268,20.073,89.524,20.391l-23.9-37.914c35.683,3.501,67.865,3.82,100.364-1.278L426.446,279.42c49.063-3.184,88.572-13.38,122.985-31.22l-45.56-24.535c56.39-6.693,93.35-21.661,126.485-44.29L572.687,158.35c62.124-8.282,104.182-29.315,135.402-54.16L645.006,90.81c61.496-11.147,107.691-39.184,136.045-75.827ZM576.801,81.561H237.171l3.503,5.415c4.462,7.33,7.328,8.917,15.927,8.917H598.463l73.278,15.61c-37.278,21.662-86.34,35.366-163.12,35.366H277.951l3.503,5.415c4.78,7.328,7.646,8.917,16.246,8.917l239.91-.318,58.622,21.661c-39.51,19.755-79.338,27.719-144.328,28.037l-133.497.635,3.51,5.422c4.78,7.33,7.646,8.917,16.253,8.917l138.595-.317,40.144,21.986c-29.625,11.473-72.319,18.477-115.338,18.477h-7.963l30.902,31.863a478.19563,478.19563,0,0,1-98.448-5.74L349,329.102c-23.9-3.184-63.401-15.928-95.901-31.863L366.524,479.48c7.01,11.473,10.512,20.39,11.79,28.997,6.694,43.33-47.155,86.34-119.792,97.806-69.777,10.83-133.496-11.473-138.911-50.022-5.416-36.961,43.646-76.146,109.915-87.62,35.046-5.74,75.192-4.144,104.182,8.608L54.613,29.307H86.151l55.755,89.525c45.243.953,67.546-25.488,67.546-56.708,0-10.513-2.548-20.708-7.963-32.817H747.252C707.75,64.99,648.485,81.561,576.802,81.561"/></svg>