<?xml version="1.0" encoding="utf-8"?>
<!-- Generator: Adobe Illustrator 27.0.0, SVG Export Plug-In . SVG Version: 6.00 Build 0)  -->
<svg version="1.1" id="Layer_1" xmlns="http://www.w3.org/2000/svg" xmlns:xlink="http://www.w3.org/1999/xlink" x="0px" y="0px"
	 viewBox="0 0 512 512" style="enable-background:new 0 0 512 512;" xml:space="preserve">
<style type="text/css">
	.st0{fill:#A7A9AC;}
	.st1{fill:#003E7E;}
	.st2{fill:#002E56;}
	.st3{fill:#FFFFFF;}
	.st4{fill:#AEB0B2;}
</style>
<g id="XMLID_1_">
	<path id="XMLID_3_" class="st0" d="M254.3,315.07l109.02-54.3c74.51,20.91,96.68,49.11,96.68,49.11l42.65-48.27
		c2.39-2.53,9.4-11.22,9.4-27.08c0-17.26-17.96-30.45-30.45-39.43c-21.19-55.7-138.77-71.84-147.47-91.2
		c-2.95-6.59-20.2-64.68-20.2-64.68C303.69,9.19,273.52,9.19,262.15,9.19c-11.51,0-35.92,3.93-35.92,3.93
		c0,41.81-5.61,92.75-11.51,102.15c0,0-21.19,11.22-46.16,20.06l-59.35-39.99l15.71,54.02C24.6,204.51,0.05,300.48,0.05,300.48
		s25.82,202.33,279.5,202.33c134.14,0,211.59-64.82,211.59-64.82l-43.22-96.68c0,0-65.95,34.38-150.27,34.38
		c-77.73,0-108.18-36.2-119.27-57.39C243.91,320.26,254.3,315.07,254.3,315.07z"/>
	<polygon id="XMLID_4_" class="st0" points="103.32,253.75 169.13,209.42 164.22,244.63 	"/>
	<polygon id="XMLID_5_" class="st0" points="184.28,203.38 172.07,173.78 219.64,147.26 	"/>
	<polygon id="XMLID_6_" class="st0" points="200.98,200.02 229.04,223.59 172.35,215.87 	"/>
	<path id="XMLID_7_" class="st1" d="M472.48,202.82c-20.63-55.98-134.98-66.23-147.61-92.61c-5.05-10.66-11.51-35.92-21.05-66.79
		c-7.58-22.31-29.89-22.31-41.11-22.31c-10.66,0-24.41,2.24-24.41,2.24c0,22.73-4.35,88.96-14.87,100.6
		c-2.67,3.23-22.17,11.22-43.36,19.36l6.31,4.35l-6.45,6.45c21.05-11.08,38.73-15.01,49.25-23.71
		c15.29-15.71,207.52,94.57,196.58,94.57c-4.77,0-22.59,6.88-37.32,12.77c49.25,16.14,74.51,33.53,77.87,36.06l-7.3,8.14
		c0,0-29.18-23.71-97.52-41.81c-29.33,14.73-115.62,1.68-115.62,1.68c-47.57,9.68-92.89,54.86-95.13,57.11
		c6.45,31.71,37.46,97.24,147.05,97.24c79.14,0,140.45-27.64,140.45-27.64l28.34,63.56c0,0-74.37,51.49-186.76,51.49
		c-229.97,0-259.16-180.72-259.16-180.72c31.71-84.75,85.17-121.93,118.98-137.65L129,163.96l-0.98-3.23
		C38.5,210.12,12.12,301.74,12.12,301.74s27.22,190.12,267.72,190.12c123.05,0,197.56-57.11,197.56-57.11l-34.8-77.73
		c0,0-64.96,30.45-144.66,30.45c-118.7,0-136.24-80.96-136.24-80.96s67.63,4.07,89.24-1.68l111.69-55.84
		c75.63,21.33,97.52,44.48,97.52,44.48l34.66-39.01c0,0,6.31-5.89,6.31-19.36C501.11,222.61,482.3,209.98,472.48,202.82"/>
	<path id="XMLID_8_" class="st2" d="M444.28,206.75c-47.43-3.79-65.81-19.36-65.81-31.71c0-5.89,5.33-7.02,8.98-7.02
		c19.36,0,49.25,15.29,54.16,28.34c-8.56-9.12-23.29-17.12-34.66-17.12c-2.53,0-4.91,0.7-4.91,3.65c0,7.72,13.61,19.64,63.28,25.26
		c-19.08-54.86-124.04-58.79-147.61-93.17c-6.59-9.54-17.4-70.86-28.34-79.14c-11.93-9.26-42.8-5.05-42.8-5.05
		c0,8.56-2.1,83.63-17.68,99.34c-10.38,8.84-28.2,12.77-49.25,23.71l-12.07,12.35l-13.47,41.95l-17.4-9.12l6.31,15.43l-31.15,5.19
		l17.68,6.03l-50.79,38.87l13.75,0.98l-17.96,32.69c26.1-11.79,33.96-14.17,33.96-14.17l-7.44-7.72l52.48-21.19
		c0,0-3.93,10.52-3.93,30.87c0,2.95,0.42,7.16,1.4,12.21c2.25-4.35,43.64-80.54,132.17-85.73l-110.57,85.59
		c0,0,60.61,2.53,75.49-1.68c46.86-21.75,84.33-42.09,113.65-56.83c28.2-14.17,49.11-23.01,63.42-23.01
		c17.68,0,42.51,17.26,63.56,31.71c0,0,1.26-1.12,2.53-3.37C496.05,226.82,469.68,212.78,444.28,206.75"/>
	<path id="XMLID_9_" class="st3" d="M150.89,298.65L150.89,298.65c2.25-2.1,47.57-47.29,95.13-57.11l37.04-28.62
		C194.52,218.12,153.13,294.31,150.89,298.65"/>
	<path id="XMLID_10_" class="st3" d="M492.69,237.34c0-11.22-14.87-18.8-27.5-29.04c-49.81-5.47-63.28-17.54-63.28-25.26
		c0-2.95,2.53-3.65,4.91-3.65c11.23,0,26.24,8,34.66,17.12c-4.91-13.05-34.8-28.34-54.16-28.34c-3.65,0-8.98,1.12-8.98,7.02
		c0,12.35,18.38,27.78,65.81,31.71c25.4,6.03,51.78,20.2,46.72,38.45C491.85,243.37,492.69,240.71,492.69,237.34"/>
	<path id="XMLID_11_" class="st3" d="M399.52,237.2l18.38,6.59c3.37-1.4,7.02-3.23,7.44-3.65c0.14-0.56,0.14-0.98-0.56-1.68
		c-0.56-0.56-8.84-3.65-13.89-5.47L399.52,237.2z"/>
	<path id="XMLID_12_" class="st3" d="M415.09,231.3c4.91,1.96,11.65,4.77,12.35,4.77c0.84,0.14,2.1,0.14,2.81,0
		c0.56-0.14,4.63-2.24,7.58-3.65c-2.81-1.4-8.56-4.07-12.49-4.07C421.69,228.36,415.09,231.3,415.09,231.3"/>
	<path id="XMLID_13_" class="st3" d="M433.33,237.76c-0.14,0.42,0,0.56,0.56,1.12c0.7,0.56,10.38,5.47,11.08,5.47
		c0.7,0.14,1.4,0.14,2.1-0.14c0.56-0.14,3.93-2.24,6.17-3.79l-12.77-6.88C437.12,235.37,433.62,237.34,433.33,237.76"/>
	<path id="XMLID_14_" class="st3" d="M442.46,247.86c0.14-0.56,0.28-0.84,0.14-1.26c-0.56-0.7-10.1-5.61-11.22-5.75
		c-1.12-0.14-1.68-0.14-2.67,0.28c-0.84,0.42-5.61,3.09-7.44,3.93l14.87,6.74C439.09,250.25,442.17,248.28,442.46,247.86"/>
	<path id="XMLID_15_" class="st3" d="M460.7,253.05c0.28,0.14,1.26-0.14,2.39-0.56c0.56-0.14,2.81-1.96,4.21-3.23l-11.51-7.3
		c-2.81,1.68-5.61,3.65-5.89,4.07c0,0.14,0,0.42,0.56,1.26L460.7,253.05z"/>
	<path id="XMLID_16_" class="st3" d="M465.33,254.18c-0.28,0.56-0.42,0.98-0.14,1.12c0.42,0.28,6.31,4.35,10.38,7.02l4.63-4.63
		l-10.52-6.88C467.57,252.21,465.61,253.9,465.33,254.18"/>
	<path id="XMLID_17_" class="st3" d="M458.73,256.14c0.14-0.28,0.14-0.98-0.28-1.26c-0.56-0.56-9.68-5.47-10.38-5.61
		c-0.84-0.14-2.1,0-2.95,0.28c-0.42,0.14-3.09,1.96-5.47,3.79l14.03,6.59C455.93,258.24,458.59,256.56,458.73,256.14"/>
	<path id="XMLID_18_" class="st3" d="M461.26,257.96c-0.42,0.14-3.09,2.1-5.05,3.65l12.77,7.86l4.77-5.19
		c-3.93-2.67-9.4-6.45-9.96-6.59S461.82,257.82,461.26,257.96"/>
	<path id="XMLID_21_" class="st4" d="M197.33,206.33l21.75,12.63l-36.9-4.49L197.33,206.33z M200.98,200.02l-28.48,15.86l56.69,7.72
		L200.98,200.02z"/>
	<path id="XMLID_24_" class="st4" d="M159.73,241.27l-40.41,6.31l44.48-30.17L159.73,241.27z M164.22,244.63l5.05-35.08l-65.81,44.2
		L164.22,244.63z"/>
	<path id="XMLID_27_" class="st4" d="M179.23,175.46l30.17-16.98l-25.96,35.22L179.23,175.46z M219.64,147.26l-47.57,26.66
		l12.35,29.61L219.64,147.26z"/>
	<path id="XMLID_28_" class="st1" d="M433.62,380.32c-19.92,7.72-71.7,24.98-135.54,24.98c-126,0-157.85-86.29-157.85-118.84
		c0-7.16,0.56-13.33,1.12-18.24l-29.04,9.68l3.79,8.14l-22.59,8.14l-19.5,12.77l39.57,7.44l-8.14,28.2l16.98-5.05l16.28,41.53
		l19.5-2.53l6.45,29.18c0,0,36.76,25.54,98.92,31.01c82.08,7.44,155.75-20.63,155.75-20.63s-87.7,34.38-167.39,25.96
		c-60.9-6.45-100.6-31.29-100.6-31.29l-0.56-26.38l-24.13,0.28l-11.37-40.27l-21.47,10.1l9.4-36.06l-41.11-5.05l8.42-25.26
		l9.68-19.64l-13.05,0.28l54.86-40.83l-23.99-9.26l39.01-7.44l-13.61-27.36l24.13,13.75l9.54-29.89
		C128.16,177.85,66,209.7,30.08,303.71c4.35,21.47,41.95,170.62,249.48,170.62c89.66,0,155.05-33.96,175.11-45.88L433.62,380.32z"/>
	<polygon id="XMLID_29_" class="st1" points="164.92,166.06 176.7,150.06 118.89,110.08 135.45,158.76 	"/>
	<path id="XMLID_30_" class="st3" d="M301.86,125.79c0,0-16.14-6.74-20.35-12.35c-4.35-5.47-9.4-60.05-9.4-60.05
		s-0.98,55.7-4.07,60.76c-3.23,4.91-19.22,14.17-19.22,14.17s17.68-5.89,26.38-6.31C281.66,121.58,301.86,125.79,301.86,125.79"/>
	<path id="XMLID_31_" class="st3" d="M275.34,122c-8.7,0.56-26.38,6.31-26.38,6.31s16-9.26,19.08-14.17
		c3.23-4.91,4.07-60.76,4.07-60.76s5.05,54.58,9.4,60.05c4.35,5.47,20.49,12.35,20.49,12.35S281.66,121.58,275.34,122"/>
	<path id="XMLID_32_" class="st3" d="M361.64,240c68.33,18.1,97.52,41.81,97.52,41.81l7.3-8.14c-3.37-2.53-28.62-19.92-77.87-36.06
		c14.59-5.89,32.41-12.77,37.32-12.77c10.8,0,33.25,14.17,57.39,29.89l5.47-6.17c-21.05-14.59-45.74-31.71-63.56-31.71
		C410.6,216.85,389.84,225.69,361.64,240"/>
	<polygon id="XMLID_33_" class="st1" points="219.08,218.82 197.33,206.33 182.04,214.33 	"/>
	<polygon id="XMLID_34_" class="st1" points="179.23,175.46 183.3,193.56 209.4,158.48 	"/>
	<polygon id="XMLID_35_" class="st1" points="163.79,217.27 119.32,247.58 159.73,241.27 	"/>
</g>
</svg>
