<svg height="263.687789" viewBox="0 0 321.89482 223.5076" width="379.236371" xmlns="http://www.w3.org/2000/svg"><path d="m220.6567 0h-220.6567v6.97794c0 19.38366 9.28181 36.48315 23.342 46.53644h-23.342v6.98227c0 19.37741 9.28181 36.474 23.342 46.53021h-23.342v6.98275c0 19.37693 9.28181 36.47354 23.342 46.52924h-23.342v6.98615c0 30.8674 23.53716 55.9826 52.46844 55.9826h49.95164l36.85086-62.29918a101.1782 101.1782 0 1 0 81.38579-161.20842z" fill="#FFFFFF"/><path d="m220.6567 6.978h-211.65992c0 27.06818 20.36567 49.00854 45.48858 49.00854h79.73178a2.25508 2.25508 0 0 1 0 4.51016h-125.22036c0 27.06387 20.36567 49.00422 45.48858 49.00422h48.07748a2.25436 2.25436 0 1 1 0 4.50872h-93.56559c0 27.06291 20.36519 49.00374 45.48811 49.00374h16.42364a2.25581 2.25581 0 0 1 0 4.51162h-61.91175c0 27.05954 20.36519 49.00182 45.48811 49.00182h43.95714l82.16879-138.92491a46.50649 46.50649 0 1 1 -6.44056 24.59754l-31.09334 52.57466a94.25844 94.25844 0 1 0 77.57931-147.79611z" fill="#000000"/><path d="m220.6567 74.48956a26.74878 26.74878 0 1 0 26.75045 26.75144 26.747 26.747 0 0 0 -26.75045-26.75144z" fill="#D24303"/></svg>