<svg height="252.719583" viewBox="0 0 960 612.40396" width="395.695493" xmlns="http://www.w3.org/2000/svg"><path d="m698.603 427.611v53.452c0 18.829-3.325 24.543-20.498 33.064l-198.117 98.277-198.108-98.277c-17.173-8.513-20.499-14.235-20.499-33.064v-53.451h-261.381l114.4-340.066h146.99v-87.546h437.22v87.545h261.39l-114.4 340.066z" fill="#010101"/><path d="m479.994 588.751 184.4-90.746c10.933-5.382 13.338-10.168 13.338-21.426v-69.845h152.875l100.349-298.304h-253.224v-87.545h-395.475v87.545h-152.875l-100.35 298.304h253.225v69.845c0 11.258 2.405 16.053 13.338 21.426z" fill="#fff"/><path d="m479.994 573.108 172.283-84.784c9.193-4.523 11.413-8.544 11.413-18.348v-77.277h156.965l90.907-270.235h-247.872v-87.545h-367.392v87.545h-156.965l-90.908 270.235h247.873v77.277c0 9.803 2.211 13.817 11.413 18.348z" fill="#a2aaad"/><path d="m485.803 392.012a1.62585 1.62585 0 0 1 1.871 1.77v2.35h1.4c1.794 0 2.42 1.23 2.42 2.8v10.755a7.59765 7.59765 0 0 1 8.575.603 8.43756 8.43756 0 0 1 10.269 1.462 9.35446 9.35446 0 0 1 10.918 3.062 9.76364 9.76364 0 0 1 10.903 4.693 10.07583 10.07583 0 0 1 11.119 6.727 10.91942 10.91942 0 0 1 11.466 9.38 11.624 11.624 0 0 1 10.2 12.178 12.55634 12.55634 0 0 1 7.508 11.599c0 5.776-3.21 10.686-9.759 12.263-1.46.34-2.405.402-2.984 1.206a4.40128 4.40128 0 0 1 2.845 5.389c-.301 1.005-4.43 12.627-4.43 12.627-.983 2.93-2.862 4.392-5.854 3.573-2.83-.782-3.781-.394-5.784 2.682-1.53 2.35-2.683 4.269-3.874 6.101-3.517 5.452-6.665 10.779-8.443 13.494a13.1759 13.1759 0 0 1 -4.995 4.383c-9.906 5.53-30.218 9.495-49.185 9.495s-39.28-3.959-49.185-9.495a13.15877 13.15877 0 0 1 -4.995-4.383c-1.778-2.715-4.918-8.034-8.444-13.494-1.19-1.84-2.335-3.75-3.874-6.1-2.003-3.077-2.96-3.465-5.791-2.683-2.985.819-4.864-.642-5.846-3.573 0 0-4.128-11.622-4.43-12.627a4.39686 4.39686 0 0 1 2.845-5.389c-.58-.804-1.523-.858-2.992-1.206-6.542-1.577-9.758-6.487-9.758-12.263a12.55572 12.55572 0 0 1 7.508-11.599 11.635 11.635 0 0 1 10.198-12.178 10.92844 10.92844 0 0 1 11.468-9.38 10.06865 10.06865 0 0 1 11.118-6.727 9.77391 9.77391 0 0 1 10.903-4.693 9.34874 9.34874 0 0 1 10.918-3.062 8.42788 8.42788 0 0 1 10.269-1.462 7.59448 7.59448 0 0 1 8.574-.603v-10.755c0-1.57.627-2.8 2.42-2.8h1.4v-2.35a1.62626 1.62626 0 0 1 1.872-1.77h11.637z" fill="#fff"/><path d="m561.603 449.654a8.725 8.725 0 0 0 -8.289-11.466c-.34 0-.689.023-1.029.054a7.54377 7.54377 0 0 0 .101-1.268 8.243 8.243 0 0 0 -8.242-8.235 8.09089 8.09089 0 0 0 -2.228.31v-.132a7.603 7.603 0 0 0 -7.597-7.609h-.011a7.5951 7.5951 0 0 0 -3.186.696 7.32743 7.32743 0 0 0 -10.887-5.111 6.967 6.967 0 0 0 -10.763-2.883 6.274 6.274 0 0 0 -10.037-1.377 5.64425 5.64425 0 0 0 -10.036 1.67c-2.606-.526-3.379-1.632-3.379-3.38 0-.687.123-.765.789-.765h.525a1.96889 1.96889 0 0 0 2.073-1.878v-8.405c0-1.446-.58-2.591-2.227-2.591h-1.284v-1.786a1.49828 1.49828 0 0 0 -1.724-1.632h-8.344a1.49875 1.49875 0 0 0 -1.724 1.632v1.786h-1.283c-1.655 0-2.234 1.153-2.234 2.59v8.406a1.97523 1.97523 0 0 0 2.079 1.878h.518c.665 0 .797.078.797.766 0 1.747-.774 2.845-3.38 3.379a5.64427 5.64427 0 0 0 -10.036-1.67 6.273 6.273 0 0 0 -10.036 1.377 6.95742 6.95742 0 0 0 -10.756 2.884 7.33311 7.33311 0 0 0 -10.895 5.11 7.53009 7.53009 0 0 0 -3.177-.696 7.61051 7.61051 0 0 0 -7.617 7.609v.132a8.236 8.236 0 0 0 -10.47 7.925 8.44139 8.44139 0 0 0 .094 1.268q-.50844-.051-1.02-.054a8.73251 8.73251 0 0 0 -8.739 8.73 8.39024 8.39024 0 0 0 .45 2.736 9.43946 9.43946 0 0 0 -.821 18.69c2.482.441 4.771.626 5.707 3.1.255.673.58 1.477.943 2.506l-1.778.742c-2.56 1.067-3.28 3.24-2.475 5.304l2.637 7.339c.99 2.976 2.536 4.754 5.568 3.92 2.876-.79 3.873-1.044 4.863.796 2.915 5.8 5.165 8.776 9.294 8.738-2.868 1.855-2.768 2.412-.317 6.13l4.925 7.37c1.671 2.583 2.443 3.279 4.237 4.385 9.596 5.551 29.6 9.626 48.83 9.626s39.241-4.075 48.837-9.626c1.786-1.098 2.567-1.802 4.238-4.385l4.917-7.37c2.46-3.71 2.56-4.267-.317-6.13 4.13.038 6.379-2.939 9.301-8.738.983-1.84 1.988-1.585 4.857-.797 3.031.835 4.577-.943 5.574-3.92l2.637-7.338c.805-2.064.078-4.237-2.474-5.304l-1.778-.742c.363-1.029.688-1.833.936-2.506.934-2.474 3.232-2.66 5.713-3.1a9.44065 9.44065 0 0 0 -.819-18.69" fill="#a2aaad" fill-rule="evenodd"/><g fill="#010101"><path d="m476.13 406.997v2.026a1.30234 1.30234 0 0 0 1.3 1.299h5.141a1.28976 1.28976 0 0 0 1.291-1.3v-2.025h2.034a1.30233 1.30233 0 0 0 1.299-1.3v-5.142a1.29444 1.29444 0 0 0 -1.299-1.29h-2.034v-2.034a1.18829 1.18829 0 0 0 -1.29-1.291h-5.143a1.1695 1.1695 0 0 0 -1.3 1.29v2.035h-2.025a1.29444 1.29444 0 0 0 -1.299 1.29v5.142a1.29717 1.29717 0 0 0 1.299 1.3zm-43.578 106.023c13.817-7.708 35.931-9.866 47.445-9.88 11.513.014 33.627 2.156 47.445 9.88 2.413 1.347 2.52 1.33 4.26-1.027l3.874-5.8q1.857-2.892-.386-4.198a86.66542 86.66542 0 0 0 -20.244-7.965 143.40474 143.40474 0 0 0 -69.883 0 87.01793 87.01793 0 0 0 -20.244 7.965q-2.241 1.305-.386 4.199l3.873 5.799c1.733 2.358 1.84 2.38 4.26 1.027"/><path d="m477.722 452.167a3.431 3.431 0 0 0 -3.434 3.428v3.184h-2.288a3.424 3.424 0 0 0 -3.425 3.423v4.619a3.29725 3.29725 0 0 0 3.084 3.409c4.393 0 4.733 2.095 4.733 4.423a4.7266 4.7266 0 0 1 -4.733 4.423 4.96987 4.96987 0 0 1 -2.96-.966.35273.35273 0 0 0 -.535.077 4.936 4.936 0 0 1 -3.765 1.725 4.87986 4.87986 0 0 1 -3.015-1.03.3555.3555 0 0 0 -.503.094 4.963 4.963 0 0 1 -2.652 1.562 4.73632 4.73632 0 0 1 -5.583-3.271c-.518-2.273-.232-4.477 3.65-5.351a3.31216 3.31216 0 0 0 2.265-4.005l-1.012-4.501a3.422 3.422 0 0 0 -4.098-2.59l-2.274.51-.704-3.108a3.424 3.424 0 0 0 -4.09-2.59l-4.508 1.013a3.432 3.432 0 0 0 -2.59 4.098l.695 3.1-2.234.503a3.433 3.433 0 0 0 -2.59 4.098l1.013 4.5a3.31241 3.31241 0 0 0 3.773 2.652c4.269-.967 5.08 1.006 5.583 3.27a4.77561 4.77561 0 0 1 -7.972 4.2.36787.36787 0 0 0 -.596.054 4.70625 4.70625 0 0 1 -6.116 2.11.409.409 0 0 0 -.642.31 5.00561 5.00561 0 0 1 -3.054 3.456c-2.134.843-4.4-.502-5.351-2.566-1.105-2.397-1.476-4.022 2.443-5.684a3.44247 3.44247 0 0 0 1.585-4.253l-1.653-4.276a3.02724 3.02724 0 0 0 -3.952-2.08l-2.954 1.083-.866-2.528c-.618-2.042-2.087-2.776-4.33-1.88l-4.77 1.779a2.59557 2.59557 0 0 0 -1.384 3.65c.51 1.237.89 2.156 1.16 2.83l-2.846 1.167a3.03805 3.03805 0 0 0 -1.794 4.144l1.918 4.825c.687 1.771 2.458 2.482 4.453 1.826 3.094-1.03 3.828-.302 5.931 3.495a11.42055 11.42055 0 0 0 10.624 6.525 11.7934 11.7934 0 0 0 10.5-6.301 12.10085 12.10085 0 0 0 15.086-4.362 12.11153 12.11153 0 0 0 14.553-1.515 12.09654 12.09654 0 0 0 14.49-1.639 12.09655 12.09655 0 0 0 14.49 1.639 12.09627 12.09627 0 0 0 14.544 1.516 12.10193 12.10193 0 0 0 15.086 4.361 11.90621 11.90621 0 0 0 21.125-.224c2.095-3.797 2.853-4.602 5.93-3.495a3.31887 3.31887 0 0 0 4.454-1.826l1.91-4.825a3.03939 3.03939 0 0 0 -1.794-4.144l-2.845-1.167c.278-.666.657-1.585 1.16-2.83a2.58955 2.58955 0 0 0 -1.384-3.65l-4.772-1.779c-2.235-.896-3.71-.162-4.322 1.88l-.866 2.528-2.96-1.083a3.00826 3.00826 0 0 0 -3.945 2.08l-1.655 4.276a3.43364 3.43364 0 0 0 1.578 4.253c3.928 1.662 3.55 3.279 2.451 5.684-.959 2.064-3.224 3.41-5.359 2.566a5.02565 5.02565 0 0 1 -3.054-3.456.4034.4034 0 0 0 -.633-.31 4.7142 4.7142 0 0 1 -6.125-2.11.35928.35928 0 0 0 -.587-.054 4.833 4.833 0 0 1 -4.33 1.152 4.77572 4.77572 0 0 1 -3.65-5.351c.518-2.273 1.314-4.238 5.59-3.27a3.31066 3.31066 0 0 0 3.766-2.653l1.013-4.5a3.427 3.427 0 0 0 -2.58814-4.09756l-.00189-.00043-2.235-.502.696-3.101a3.432 3.432 0 0 0 -2.59-4.098l-4.508-1.013a3.43 3.43 0 0 0 -4.091 2.59l-.696 3.109-2.273-.51a3.418 3.418 0 0 0 -4.08789 2.57965l-.00211.00934-1.013 4.5a3.30179 3.30179 0 0 0 2.257 4.006c3.89.874 4.168 3.086 3.658 5.35a4.73851 4.73851 0 0 1 -5.59 3.272 4.97 4.97 0 0 1 -2.653-1.562.35039.35039 0 0 0 -.495-.093 4.96558 4.96558 0 0 1 -6.789-.696.35511.35511 0 0 0 -.533-.077 5.047 5.047 0 0 1 -2.962.966 4.78275 4.78275 0 0 1 -4.732-4.423c0-2.258.348-4.423 4.732-4.423a3.30412 3.30412 0 0 0 3.093-3.41v-4.608a3.43 3.43 0 0 0 -3.427-3.433h-2.295v-3.178a3.426 3.426 0 0 0 -3.418-3.434h-4.538zm2.274 71.726c19.655 0 36.558-3.619 46.347-7.872a56.09611 56.09611 0 0 0 -15.673-5.69c-8.166 1.213-19.973 2.83-30.682 2.83s-22.517-1.609-30.682-2.83a56.0448 56.0448 0 0 0 -15.672 5.69c9.796 4.253 26.7 7.872 46.347 7.872m25.648-94.327a3.15113 3.15113 0 0 0 -6.30219.01084l.00019.02816a3.15106 3.15106 0 0 0 6.302-.039zm-14.925-8.52a2.676 2.676 0 1 0 -2.602 2.602 2.676 2.676 0 0 0 2.602-2.602zm6.989 3.959a2.676 2.676 0 1 0 -5.35-.14609q-.002.073 0 .14609a2.676 2.676 0 0 0 5.35 0zm17.252 11.459a3.974 3.974 0 1 0 -3.974 3.974 3.972 3.972 0 0 0 3.974-3.97zm9.393 9.82a4.75549 4.75549 0 1 0 .001 0z"/><path d="m533.998 458.16a5.385 5.385 0 1 0 -5.38 5.382 5.37951 5.37951 0 0 0 5.38-5.382zm-17.035-39.712a3.826 3.826 0 1 0 -7.651.123q.00083.051.003.102a3.826 3.826 0 0 0 7.648-.225zm10.697 3.989a4.33459 4.33459 0 1 0 -4.208 4.462 4.33 4.33 0 0 0 4.20709-4.44949l-.00012-.00452m10.70709 5.837a4.68453 4.68453 0 1 0 .00012.00314zm-41.027-12.657a2.90064 2.90064 0 1 1 -.001 0zm9.471.534a3.01548 3.01548 0 1 0 .009.001m41.961 19.924a5.11459 5.11459 0 0 0 -10.229.06088v.00113a5.113 5.113 0 0 0 5.14575 5.08h.00323a5.101 5.101 0 0 0 5.08014-5.12177zm9.658 9.775a5.50512 5.50512 0 0 0 -11.01.07 5.497 5.497 0 0 0 5.52777 5.46606l.00824-.00006a5.502 5.502 0 0 0 5.47406-5.52981zm8.098 11.97a5.895 5.895 0 0 0 -5.92773-5.86206l-.01026.00006a5.89963 5.89963 0 1 0 5.938 5.862zm-59.495.555c.488-3.959 1.988-5.637 5.119-5.072a.38883.38883 0 0 0 .41-.525c-2.274-7.648-13.407-22.285-27.117-28.54-.88-.403-1.407-.689-1.547-.519-.154.178.256.596.928 1.183 12.937 11.367 15.573 29.074 15.867 34.657a.39127.39127 0 0 0 .72.186s1.499-2.73 5.62-1.377"/><path d="m497.013 421.392c19.772 6.303 39.76 25.935 43.549 45.854a.371.371 0 0 0 .695.093 16.32379 16.32379 0 0 1 1.051-2.668 3.38315 3.38315 0 0 1 4.052-1.175c2.367.796 5.792 2.125 7.54 2.837.34.14.696-.108.556-.463-9.395-24.465-36.257-42.342-57.32-45.296-1.106-.155-1.747-.162-1.778.046-.03.247.317.355 1.655.773zm-44.073 36.992c4.122-1.352 5.621 1.377 5.621 1.377a.39.39 0 0 0 .72-.186c.286-5.582 2.923-23.289 15.866-34.656.673-.595 1.09-1.005.928-1.182-.139-.17-.665.116-1.547.518-13.709 6.255-24.844 20.892-27.117 28.54a.39071.39071 0 0 0 .41.525c3.132-.565 4.631 1.113 5.12 5.072m10.029-37c1.338-.408 1.693-.524 1.655-.772-.031-.216-.673-.21-1.778-.047-21.063 2.962-47.925 20.839-57.32 45.297-.139.347.217.595.557.463 1.748-.718 5.173-2.041 7.539-2.837a3.39436 3.39436 0 0 1 4.052 1.175 16.36193 16.36193 0 0 1 1.052 2.668.368.368 0 0 0 .695-.094c3.789-19.918 23.778-39.55 43.548-45.852zm23.088 22.533a6.07 6.07 0 1 0 -6.07 6.07 6.07048 6.07048 0 0 0 6.07-6.07zm-3.223-18.759a2.8905 2.8905 0 1 0 0 .021c0-.00669 0-.01334 0-.02zm.678 7.796a3.57251 3.57251 0 1 1 0-.001zm.55-16.145a4.121 4.121 0 1 0 -4.122 4.121 4.12012 4.12012 0 0 0 4.122-4.121zm15.773 56.283a3.843 3.843 0 1 0 -3.843 3.843 3.83779 3.83779 0 0 0 3.843-3.843zm32.005 5.922a3.843 3.843 0 1 0 -3.843 3.843 3.83779 3.83779 0 0 0 3.843-3.843zm-71.686-5.922a3.843 3.843 0 1 0 3.843-3.843 3.83907 3.83907 0 0 0 -3.843 3.843zm-32.013 5.922a3.843 3.843 0 1 0 3.843-3.843 3.83843 3.83843 0 0 0 -3.843 3.843zm18.597-56.639a3.825 3.825 0 0 0 .328-7.643q-.05147-.00219-.103-.003a3.825 3.825 0 0 0 -.225 7.646zm-10.207 4.516a4.324 4.324 0 0 0 4.45258-4.19147l.00043-.01452a4.314 4.314 0 0 0 -4.17038-4.453l-.03562-.001a4.33188 4.33188 0 1 0 -.25854 8.65991l.00354.00009"/><path d="m426.209 433.146a4.72655 4.72655 0 1 0 .278-9.449 4.72655 4.72655 0 1 0 -.278 9.449zm39.334-14.591a2.91506 2.91506 0 0 0 .04407-5.82993l-.01407-.00006a2.908 2.908 0 0 0 -2.92993 2.88593l-.00006.01406a2.908 2.908 0 0 0 2.88592 2.92994zm-9.04.975a3.347 3.347 0 0 0 3.37195-3.32187l.00006-.01013a3.35158 3.35158 0 1 0 -3.37411 3.324h.0021m-40.207 21.712a5.1151 5.1151 0 0 0 .07224-10.22992l-.01023-.00006a5.11 5.11 0 0 0 -5.14194 5.07785l-.00006.01016a5.102 5.102 0 0 0 5.0618 5.14188l.01819.00012zm-9.278 10.161a5.502 5.502 0 0 0 5.536-5.4678v-.0072a5.496 5.496 0 0 0 -5.45578-5.53595l-.01123-.00006a5.505 5.505 0 0 0 -5.54395 5.46576l-.00006.00924a5.50889 5.50889 0 0 0 5.47502 5.53601zm-7.7 12.364a5.89905 5.89905 0 1 0 -.01324-.0001l.01224.0001zm58.168-31.023a3.146 3.146 0 0 0 3.16995-3.12186l.00007-.00815a3.147 3.147 0 0 0 -3.12287-3.17093l-.00815-.00006a3.147 3.147 0 0 0 -3.17 3.12387v.00714a3.147 3.147 0 0 0 3.12387 3.17h.00714zm14.467-9.014a2.60247 2.60247 0 1 1 0-.001zm-6.987 3.958a2.676 2.676 0 1 0 -2.675-2.677v.002a2.676 2.676 0 0 0 2.675 2.675zm-15.947 12.758a3.9745 3.9745 0 1 0 -3.974-3.975 3.97265 3.97265 0 0 0 3.974 3.975zm-8.629 10.593a4.751 4.751 0 1 0 -4.756-4.755 4.75708 4.75708 0 0 0 4.756 4.755zm-9.015 12.511a5.385 5.385 0 1 0 -5.382-5.38 5.37951 5.37951 0 0 0 5.382 5.38z"/></g><path d="m482.894 403.13a2.9035 2.9035 0 1 1 -2.9-2.9 2.9 2.9 0 0 1 2.9 2.9zm-2.945 89.741a3.773 3.773 0 1 1 -3.774 3.773 3.774 3.774 0 0 1 3.774-3.773zm-25.238 5.753a3.78 3.78 0 1 1 7.471-1.15677q.01285.08313.022.16678a3.77 3.77 0 0 1 -3.23788 4.23578l-.00913.00122a3.774 3.774 0 0 1 -4.24438-3.2359l-.00162-.01209zm-19.911 5.898a3.437 3.437 0 0 1 2.112-4.469 3.6476 3.6476 0 0 1 4.539 2.266 3.43762 3.43762 0 0 1 -2.112 4.47 3.6596 3.6596 0 0 1 -4.539-2.266zm62.978-6.889a3.77907 3.77907 0 1 1 7.493.99 3.77907 3.77907 0 1 1 -7.493-.99zm20.755 4.679a3.666 3.666 0 0 1 4.539-2.266 3.42936 3.42936 0 0 1 2.11 4.47 3.65413 3.65413 0 0 1 -4.538 2.265 3.43548 3.43548 0 0 1 -2.11-4.47zm-38.6-41.367a3.63 3.63 0 1 1 -3.634 3.633 3.635 3.635 0 0 1 3.634-3.633zm33.211 3.679a3.63051 3.63051 0 1 1 -3.634 3.634 3.63441 3.63441 0 0 1 3.634-3.634zm32.83 10.153a3.63 3.63 0 1 1 -3.635 3.634 3.63524 3.63524 0 0 1 3.635-3.634zm-95.508-6.525a3.63451 3.63451 0 1 1 0-.001zm-32.825 10.16a3.63451 3.63451 0 1 1 0-.001z" fill="#fff"/><path d="m374.133 73.008c-4.624 0-7.075.959-8.954 2.42-3.317 2.63-5.01 7.222-5.01 14.46s1.692 11.83 5.01 14.459c1.879 1.47 4.33 2.42 8.954 2.42s7.075-.959 8.946-2.42c3.317-2.629 5.011-7.222 5.011-14.46s-1.694-11.83-5.01-14.459c-1.88-1.469-4.33-2.42-8.947-2.42zm0 5.59a3.35233 3.35233 0 0 1 3.04 1.446c.788 1.214 1.073 2.884 1.073 9.843s-.278 8.637-1.074 9.843a3.92488 3.92488 0 0 1 -6.086 0c-.788-1.213-1.075-2.884-1.075-9.843s.279-8.636 1.075-9.843a3.3709 3.3709 0 0 1 3.047-1.446zm-17.32 12.078v13.81c0 1.214-.45 1.716-1.709 1.716h-26.514v-5.102c3.155 0 3.78-.967 3.78-3.743v-21.565c0-3.356-.594-4.199-3.78-4.199v-5.103h18.542v5.103c-4.044 0-4.779 1.361-4.779 4.315v23.691c0 .743.248 1.044 1.067 1.044 5.12 0 6.967-1.817 9.024-9.959h4.36zm107.803 7.98-7.957-29.761c-.48-1.779-1.152-2.413-3.139-2.413h-17.259v4.794c2.893.17 3.612 1.377 2.792 4.454l-5.807 21.96c-.649 2.428-1.46 3.224-3.665 3.34v5.165h15.565v-5.165c-3.812 0-4.725-1.106-4.144-3.425l.285-1.191a.99451.99451 0 0 1 1.16-.881h10.068c.765 0 1.005.278 1.152.88l.317 1.269c.549 2.227-.324 3.348-3.58 3.348v5.165h17.328v-5.165c-1.887-.092-2.706-.727-3.131-2.373m-13.594-8.344h-7.051c-.875 0-1.091-.287-.875-1.16l3.612-14.614c.147-.58.402-.835.788-.835.387 0 .65.255.789.835l3.61 14.614c.218.882 0 1.16-.88 1.16m95.284-10.872c-.827.998-1.19 2.815-1.19 6.58 0 .727.263.99.965.99h6.202c.704 0 .936-.263.966-.99.132-3.185-.285-5.582-1.105-6.58a3.30943 3.30943 0 0 0 -2.86-1.136 3.57525 3.57525 0 0 0 -2.978 1.136zm4.322 21.937c3.264 0 5.437-1.74 6.882-5.536h4.114v5.543c0 2.56-.665 3.38-2.838 4.098a29.17977 29.17977 0 0 1 -9.117 1.276c-4.902 0-8.064-1.02-10.291-3.123-2.769-2.614-4.006-6.828-4.006-13.586s1.37-10.794 4.168-13.678c2.026-2.088 4.956-3.38 10.222-3.38 4.593 0 7.717 1.238 9.658 3.325 2.304 2.475 3.1 6.086 3.1 11.862 0 3.301-.518 3.943-2.984 3.943h-13.446c-.711 0-.966.271-.966.99 0 6.263 1.87 8.258 5.512 8.258m42.033-21.929c-.827.998-1.191 2.815-1.191 6.58 0 .727.263.99.967.99h6.2c.712 0 .936-.263.967-.99.132-3.185-.294-5.582-1.106-6.58a3.33287 3.33287 0 0 0 -2.868-1.136 3.58383 3.58383 0 0 0 -2.977 1.136m4.323 21.937c3.263 0 5.443-1.74 6.881-5.536h4.121v5.543c0 2.56-.664 3.38-2.845 4.098a29.11861 29.11861 0 0 1 -9.108 1.276c-4.91 0-8.073-1.02-10.292-3.123-2.768-2.614-4.013-6.828-4.013-13.586s1.368-10.794 4.175-13.678c2.026-2.088 4.949-3.38 10.223-3.38 4.585 0 7.708 1.238 9.649 3.325 2.304 2.475 3.1 6.086 3.1 11.862 0 3.301-.518 3.943-2.984 3.943h-13.446c-.712 0-.967.271-.967.99 0 6.263 1.871 8.258 5.513 8.258m-20.281-3.255c0 2.049.911 2.977 2.96 2.977v5.103h-8.203c-2.915 0-4.176-1.361-4.176-4.199v-27.403c0-2.041-.904-2.977-2.96-2.977v-5.103h12.37v31.602zm-161.906-14.583h-3.573a8.22943 8.22943 0 0 0 -7.801-5.359c-2.514 0-3.519 1.168-3.519 2.722 0 1.755 1.02 2.791 3.41 3.634l4.376 1.532c6.495 2.272 8.939 5.102 8.939 10.438 0 6.967-4.647 10.268-13.083 10.268a39.54209 39.54209 0 0 1 -8.343-.904c-2.845-.681-3.332-1.415-3.332-3.434v-6.58h3.835c1.817 3.626 4.492 5.707 8.381 5.707 2.838 0 4.176-1.307 4.176-3.209s-1.222-2.962-3.897-3.89l-4.26-1.477c-5.908-2.049-8.321-4.956-8.321-10.322 0-6.008 3.773-9.642 12.248-9.642a33.55629 33.55629 0 0 1 7.43.85c2.831.658 3.334 1.485 3.334 3.851zm221.189 0h-3.565a8.22884 8.22884 0 0 0 -7.802-5.359c-2.52 0-3.518 1.168-3.518 2.722 0 1.755 1.021 2.791 3.41 3.634l4.377 1.532c6.495 2.272 8.938 5.102 8.938 10.438 0 6.967-4.647 10.268-13.083 10.268a39.59745 39.59745 0 0 1 -8.35-.904c-2.846-.681-3.325-1.415-3.325-3.434v-6.58h3.835c1.817 3.626 4.492 5.707 8.382 5.707 2.837 0 4.167-1.307 4.167-3.209s-1.214-2.962-3.889-3.89l-4.26-1.477c-5.916-2.049-8.32-4.956-8.32-10.322 0-6.008 3.78-9.642 12.255-9.642a33.56192 33.56192 0 0 1 7.423.85c2.83.658 3.333 1.485 3.333 3.851v5.823zm-134.31 17.56v5.103h-8.436c-2.915 0-4.176-1.361-4.176-4.199 0-5.597.164-11.845.164-18.17 0-2.892-.921-4.037-2.77-4.037-2.403 0-3.95 1.817-3.95 5.614v12.712c0 2.05.904 2.977 2.961 2.977v5.103h-15.349v-5.103c2.058 0 2.962-.928 2.962-2.977v-16.454c0-2.042-.904-2.977-2.962-2.977v-5.104h6.805c2.954 0 4.083.944 4.733 3.588.123.518.463.565.765.1 1.794-2.79 4.284-4.26 8.29-4.26 5.62 0 8.149 3.023 8.149 9.325s-.162 10.183-.162 15.782c0 2.05.911 2.977 2.96 2.977m16.037-8.026a3.13177 3.13177 0 0 0 2.49-.951c1.021-1.045 1.4-2.629 1.4-6.286s-.379-5.235-1.4-6.28a3.73821 3.73821 0 0 0 -4.98 0c-1.02 1.045-1.398 2.63-1.398 6.28s.378 5.241 1.398 6.286a3.13426 3.13426 0 0 0 2.49.95zm.178 21.441c4.67 0 6-.324 6.774-.967a2.23043 2.23043 0 0 0 .835-1.809c0-1.391-.92-1.964-2.954-1.964-3.556 0-7.036.093-10.369.093-2.026 0-2.954.765-2.954 2.072a2.01527 2.01527 0 0 0 .851 1.701c.796.58 1.856.866 6.897.866h.904l.017.008zm10.578-35.421a10.07935 10.07935 0 0 1 2.776 7.538c0 7.091-4.678 12.033-13.81 12.033-1.925 0-2.196-.093-3.696-.093-1.369 0-1.933.587-1.933 1.345 0 .966.642 1.708 2.791 1.708 3.333 0 5.792-.162 9.356-.162 7.013 0 9.689 2.915 9.689 7.802a8.20182 8.20182 0 0 1 -2.76 6.564c-2.258 1.934-5.189 2.854-13.308 2.854h-1.948c-6.898 0-9.232-.657-10.748-1.833a4.48026 4.48026 0 0 1 -1.756-3.765c0-2.174 1.269-3.905 3.86-4.6.409-.117.347-.441 0-.658a5.50137 5.50137 0 0 1 -2.8-5.034c0-2.722 1.57-4.895 4.732-5.69.441-.11.448-.45.109-.704-3.179-2.36-4.671-5.645-4.671-10.562 0-8.19 4.57-12.82 13.67-12.82 3.279 0 5.344.571 9.635.571h6.449v4.779h-5.359c-.533 0-.673.34-.278.727z" fill="#010101"/><path d="m718.374 219.682c0 1.036.58 2.05 4.91 2.682 2.095.31 4.585.65 7.197.99a54.6275 54.6275 0 0 0 2.336 13.183l6.348-.139a52.22889 52.22889 0 0 1 -2.798-16.043l-18.001-.673h.00793zm-52.788-51.699c9.379.905 15.17 6.843 16.934 22.346l5.745-.58c-2.011-16.508-8.707-21.912-19.579-21.912-1.06 0-2.087.046-3.1.14m44.597 125.13h-5.806l-10.926 32.507 5.93-.371zm43.597-7.647c3.882.526 10.632 1.19 17.66 1.778a42.86379 42.86379 0 0 1 8.305 14.359l6.364-.14c-1.508-5.706-4.756-11.358-10.068-17.366l-27.349-1.213c0 1.19.75 1.994 5.089 2.59m7.514-121.953c12.357-10.539 28.957-16.153 49.827-16.532-1.206-.023-2.397-.03-3.564-.03-22.146 0-39.597 5.768-52.417 16.895zm47.035 4.276c-.967 0-1.919.046-2.854.116 7.794.595 12.921 3.71 15.774 10.747l5.544-.626c-3.271-7.423-9.24-10.237-18.465-10.237zm-114.113 72.312c0 1.09.804 2.018 5.165 2.56 7.902.974 22.81 2.272 37.331 3.347a92.72041 92.72041 0 0 0 15.449 21.04l7.222-.209c-8.095-8.443-14.15-16.547-18.008-24.952zm33.249 30.334c0 1.19.851 2.056 5.196 2.613 6.975.897 18.086 1.825 27.712 2.46l3.674 3.765 6.974-.487-6.573-6.727-36.99-1.617zm-334.581 38.451 10.461-31.067-37.841-1.563c0 1.253.82 2.165 5.165 2.684 6.217.727 15.92 1.67 25.648 2.498l-9.348 27.773 5.915-.332zm-90.885 4.787 8.536-25.37-48.164-1.576c0 1.252 1.283 2.458 5.444 2.837 8.266.75 22.253 1.686 35.676 2.436l-7.353 21.859 5.869-.186zm209.498-76.634c1.275.271 2.69.564 4.175.866l-18.828 55.897-.155 10.694c-.061 3.795 1.052 3.865 2.312.116l23.306-69.197-15.744-1.252c0 1.183.658 1.956 4.933 2.869m1.987-35.415c2.846.51 8.374 1.276 13.764 1.91l-9.217 27.388 5.954-.464 9.665-28.703c.186-.541.355-1.066.534-1.593l-25.827-1.299c0 1.153.82 1.988 5.127 2.761zm82.896-16.407a95.57076 95.57076 0 0 1 11.073-13.454c15.99-15.967 36.241-24.241 66.807-24.713q-1.52316-.04027-3.047-.047c-32.135 0-53.082 8.313-69.567 24.76a95.50855 95.50855 0 0 0 -11.304 13.787l6.03-.333zm-66.427 9.928 5.87-.325c5.172-18.302 1.392-23.622-12.426-26.622l5.97-17.746h-5.808l-6.742 20.035c15.387 3.34 18.294 7.276 13.13 24.658m208.563-24.813c2.467.417 5.63.896 9.054 1.345a74.51433 74.51433 0 0 0 -12.325 22.717 83.83947 83.83947 0 0 0 -4.663 21.457l5.954-.719a81.26742 81.26742 0 0 1 4.515-20.738 72.81139 72.81139 0 0 1 14.685-25.508l-22.34-1.339c0 1.347.805 2.058 5.12 2.785zm-170.125 76.062q3.17048-9.23714 6.687-18.35l-15.301-1.212c0 .974.664 1.785 2.722 2.38 1.585.457 3.556.913 5.799 1.354q-2.97776 7.866-5.715 15.82-1.69575 4.90918-3.316 9.844l5.953-.457q1.55219-4.70452 3.17-9.387m14.304-36.512-13.285-1.052c0 1.145.812 1.802 3.225 2.467.95.271 2.049.534 3.255.805q-2.5514 5.69942-4.872 11.498l6-.464c1.903-4.725 3.79-9.156 5.677-13.254zm10.298-19.454-23.583-1.19c0 1.097 1.113 2.103 3.194 2.467 3.364.58 7.995 1.213 12.781 1.723-2.196 3.75-4.353 7.842-6.51 12.295l6.015-.464c2.675-5.49 5.367-10.4 8.103-14.83zm-458.647 121.837 7.392-21.99-21.574-1.323c0 1.122.534 2.205 4.857 2.907 2.814.457 6.208.967 9.89 1.455l-6.434 19.114 5.86-.163h.008zm429.189-51.296-17.104-1.353c0 1.19.658 2.15 4.957 3.085 1.477.325 3.356.688 5.451 1.067-5.203 16.602-8.56 30.319-10.16 41.855l5.838-.34c1.716-12.117 5.35-26.623 11.01-44.314m235.447-61.271c5.823.673 15.326 1.516 25.1 2.134q-.13935 5.61633-.566 11.22h5.808c.401-5.366.603-10.16.595-14.42l-35.615-1.562c0 1.492 1.098 2.21 4.67 2.628m-166.979 52.859-6.735 20.035c14.916 2.405 18.41 4.623 14.143 20.112l5.799-.156c4.23-16.13.627-20.158-13.369-22.237l5.969-17.746h-5.806v-.008zm196.463-69.466-18.179-.797c0 1.122.75 1.917 5.072 2.613 1.917.31 4.733.727 7.887 1.16a66.99525 66.99525 0 0 1 .757 7.477l5.8-.162a58.8706 58.8706 0 0 0 -1.337-10.29zm-276.561 127.427-22.238-1.408c0 1.153.773 2.08 5.073 2.885 2.59.48 6.641 1.114 11.087 1.725a72.194 72.194 0 0 0 .782 18.248l5.768-.186a76.58306 76.58306 0 0 1 -.464-21.264m137.014-106.775c.038-3.24-.031-6.2-.186-8.938l-18.03-.82c0 1.199 1.035 2.019 4.12 2.498 2.196.34 5.166.719 8.227 1.036.07 1.987.07 4.145.04 6.386zm98.133 103.179-46.07-1.748c0 1.122.828 2.018 5.189 2.56 8.629 1.067 23.042 2.443 34.934 3.332a41.12283 41.12283 0 0 1 -2.466 12.442l5.923-.325a40.38336 40.38336 0 0 0 2.49-16.27m-144.987-4.096q.84623-2.511 1.631-5.042l-34.75-1.523c0 1.183.944 1.879 3.674 2.227 6.333.827 15.603 1.777 24.271 2.458-.208.611-.402 1.23-.626 1.88l-3.858 11.466 5.915-.316 3.75-11.15zm108.126 43.703q1.50567.09417 3.015.093c13.3 0 23.282-5.753 29.174-18.025l-24.165-1.453c0 1.16.85 2.288 5.197 2.876 3.479.464 7.46.96 11.668 1.423-5.552 9.51-14.012 14.374-24.882 15.078m-113.715-27.11-24.642-1.476c0 1.12.896 1.847 3.873 2.35 4.113.688 8.822 1.36 13.996 1.987l-3.055 9.085 5.954-.463 3.866-11.49zm51.472-98.246c.395-4.391.657-8.428.813-12.178l-35.438-1.547c0 1.152.805 1.987 5.158 2.56 6.526.865 14.552 1.747 24.303 2.56q-.25214 4.3074-.643 8.605zm-68.51 124.614c1.903-.086 3.751-.217 5.49-.464a4.6142 4.6142 0 0 0 4.03-3.542l2.009-5.97-15.333-1.214c0 .974.951 1.771 3.023 2.304a57.22031 57.22031 0 0 0 5.768 1.107l-1.267 3.773c-.704 2.072-1.5 3.302-3.712 4.012m-163.67-147.299c.063-3.71-1.082-3.696-2.273-.123l-3.688 10.933-.842 58.688 5.814-.603.99-68.887v-.008zm-285.21-13.477 5.707-.341c1.794-10.484-1.299-13.74-8.622-16.446l5.97-17.746h-5.808l-6.734 20.035c8.165 2.474 11.212 4.98 9.48 14.505m-43.371 20.715c9.008.927 22.308 1.825 36.318 2.59l-10.237 30.435 5.907-.302 11.382-33.837-48.31-1.592c0 1.299 1.415 2.342 4.933 2.714m301.025-23.435 6.055-.465c.82-8.227-2.551-11.18-10.887-13.624l5.97-17.746h-5.808l-6.735 20.035c8.213 1.832 11.909 4.198 11.405 11.806m-307.451 87.623c5.08.595 13.176 1.414 21.295 2.18l-4.493 13.37 5.916-.334 5.512-16.407-33.224-1.54c-.032 1.277 1.476 2.313 4.986 2.723m131.549-79.311-4.585 4.207 8.482-.286.301-.279c15.117-13.856 13.733-23.707 1.532-26.034l5.969-17.746h-5.807l-6.735 20.042c13.47 1.508 13.895 8.15.843 20.105m83.655-40.154-6.735 20.035c8.552 2.59 11.49 5.203 9.202 15.89l5.714-.287c2.335-11.629-.704-15.055-8.343-17.884l5.96-17.746h-5.805l.008-.008zm-180.27 40.618c3.395.587 7.763 1.229 12.89 1.894q-.98334 3.23241-2.064 6.434l5.837-.109c1.137-3.472 2.041-6.51 2.738-9.209l-23.004-1.484c0 1.299.905 2.026 3.595 2.482m403.972 158.364a42.046 42.046 0 0 1 -6.032-12.441l-32.39-1.54c0 1.107.834 1.98 5.165 2.56 4.894.65 14.567 1.71 22.617 2.46a41.66088 41.66088 0 0 0 4.832 8.968c8.011 11.297 25.23 18.025 49.332 18.025 1.322 0 2.644-.016 3.96-.032-23.12-.34-39.675-6.989-47.484-17.985m-427.531-30.565.41-1.23-35.468-1.64c0 1.268.89 2.18 5.513 2.76 5.768.72 13.54 1.594 22.902 2.514-6.255 17.7-10.994 20.76-22.778 22.74l-6.743 20.042h5.807l5.97-17.745c13.12-3.147 17.698-7.562 24.379-27.434m321.499 30.659.278-19.779-28.732-1.338c0 1.238.835 2.026 5.165 2.684 4.94.75 11.142 1.469 17.715 2.01l-.232 16.423c-.21 10.926 2.852 14.506 12.062 14.506h5.807c-9.21 0-12.272-3.588-12.063-14.506zm236.283 3.936 7.856-23.368-17.452-.927c0 1.407.727 2.266 5.019 3.085 1.708.325 3.61.642 5.582.935l-5.9 17.56c-2.134 6.295-.58 8.924 8.181 11.02-4.33-1.037-5.072-3.04-3.286-8.313m-299.061-38.468.278-.82-22.964-1.406c0 1.214.603 1.987 4.902 2.83 3.533.688 7.245 1.275 11.142 1.832-6.983 19.896-11.993 23.166-25.78 26.583l-6.742 20.035h5.807l5.97-17.738c14.158-3.58 19.949-9.24 27.387-31.307m-181.012 17.327-.216-5.528-30.89-1.524c0 1.198.919 2.165 3.657 2.567 6.054.882 13.492 1.755 21.564 2.474l.078 2.01c1.26 26.747 6.503 32.392 29.267 32.392 1.183 0 2.359-.016 3.525-.023-20.837-.395-25.772-6.55-26.985-32.376m66.057 13.981c13.121-3.148 17.7-7.563 24.38-27.42l-32.081-1.485c0 1.238 1.027 2.165 3.363 2.568 5.907.99 13.74 1.964 21.596 2.668-6.015 16.524-10.817 19.446-22.292 21.38l-6.742 20.041h5.806l5.97-17.745v-.008zm178.847-73.998-16.508-.874c0 1.183.835 2.312 5.165 2.961 1.522.225 3.41.495 5.498.765l-.217 15.033 5.807-.31zm-204.086-72.715-27.83-1.284c0 1.23.705 2.018 3.194 2.412 3.759.596 8.576 1.2 13.454 1.64l-14.142 12.982 8.993-.78 16.33-14.97zm142.043 30.125c5.39.68 12.611 1.446 20.352 2.11l-5.305 15.759 5.938-.38 6.263-18.626-32.398-1.508c0 1.214.72 2.088 5.142 2.645m14.815-24.427c3.711.704 8.444 1.508 13.702 2.335l-5.35 15.89 5.868-.186 6.572-19.5-25.841-1.3c0 1.246.742 1.973 5.057 2.768m22.562-6.826c1.523-4.64 2.652-8.52 3.379-11.777l-15.697-1.244c0 1.267.673 2.072 4.965 2.938 1.337.27 2.776.54 4.298.827-.672 2.73-1.638 5.916-2.852 9.581zm-222.628 72.072c-.1-2.614-1.214-2.962-3.054-1.276l-2.705 2.475 1.067 27.666 5.79-.441-1.097-28.432v.008zm1.314 33.899-24.016-1.175c0 1.275.936 2.234 4.771 2.837 3.178.503 7.825 1.122 13.57 1.717l.534 13.818 5.791-.24-.657-16.958h.008zm1.825-85.365c0 1.152.719 2.195 5.034 2.914.61.093 1.33.217 2.087.325l-17.483 16.045-3.618 10.755 31.872-29.204-17.9-.828zm117.561 16.934-70.54-1.663c0 1.338 1.391 2.412 5.443 2.715 18.55 1.345 36.566 2.327 57.907 3.093l-3.79 11.266 5.855-.148 5.134-15.263zm-7.87-43.347c4.894.773 10.547 1.5 15.882 2.087-.472 1.524-.997 3.14-1.592 4.887l-1.71 5.089 5.831-.101 1.09-3.232c1.253-3.712 2.258-6.952 3.047-9.828l-26.599-1.53c0 1.29 1.26 2.195 4.044 2.636m133.721 131.733.417-29.15-24.951-1.5c0 1.215.842 2.096 5.18 2.815q6.93074 1.13511 13.918 1.871l-.38 26.267 5.816-.294zm-48.836-51.883 6.827-20.274-18.797-1.276c0 1.214.673 1.903 4.957 2.839 2.01.44 4.414.911 7.043 1.398l-5.876 17.453 5.853-.148-.007.009zm-68.224-62.615-51.682-1.585c0 1.492 1.925 2.436 5.443 2.714 10.446.812 23.993 1.663 39.226 2.475l-5.776 17.188 5.83-.077 6.967-20.715h-.007zm-186.099 53.398 6.518-19.392-26.36-1.515c0 1.067.983 1.755 3.58 2.189 3.866.641 9.867 1.507 15.99 2.258l-5.605 16.662 5.877-.201zm161.512 19.68 8.822-26.229-40.796-1.685c-.03 1.168 1.145 2.211 4.098 2.544 8.181.935 19.772 2.05 29.631 2.876l-7.601 22.602 5.837-.108z" fill="#fff"/><path d="m863.408 160.212-17.8 52.828h-16.307c.402-5.374.604-10.161.596-14.429l-35.615-1.555c0-1.329 1.276-2.736 6.658-2.89l28.826-.805a58.91332 58.91332 0 0 0 -1.338-10.292l-18.179-.797c0-1.391 1.168-2.52 6.55-3.123l9.982-1.13c-3.271-7.43-9.233-10.237-18.457-10.237-13.81 0-23.49 7.4-28.347 21.078-5.815 16.37-3.224 26.73 10.632 40.834l12.519 12.767c27.79 28.339 32.166 49.401 21.31 79.116-10.896 29.792-34.13 45.829-77.408 45.829-18.387 0-39.017-2.08-53.879-5.62-4.33-1.03-5.064-3.04-3.278-8.313l7.856-23.367-17.452-.927c0-1.292.858-2.676 4.84-3.055l14.251-.897 10.81-32.135h17.32c-3.665 41.174 4.33 53.492 25.68 53.492 13.291 0 23.28-5.753 29.165-18.024l-24.163-1.454c0-1.275 1.299-2.598 6.658-2.892l19.694-1.06a40.35228 40.35228 0 0 0 2.497-16.268l-46.07-1.748c0-1.29 1.33-2.752 6.658-2.89l38.484-.82c-1.516-5.707-4.755-11.36-10.067-17.375l-27.342-1.206c0-1.362 1.26-2.621 6.611-2.992l15.72-1.098-6.573-6.727-36.99-1.617c0-1.307 1.276-2.737 6.657-2.884l25.261-.71c-8.095-8.452-14.15-16.556-18.008-24.954l-47.159-1.786c0-1.46 1.33-2.76 6.658-2.892l38.305-.819a52.5141 52.5141 0 0 1 -2.8-16.044l-18-.673c0-1.384 1.152-2.529 6.526-3.162l11.622-1.393a80.94092 80.94092 0 0 1 4.523-20.738 72.63041 72.63041 0 0 1 14.684-25.508l-22.338-1.337c0-1.4 1.298-2.6 6.657-2.892l21.248-1.145c12.789-10.91 30.14-16.563 52.07-16.563 15.146 0 33.426 1.857 46.578 4.926 4.686 1.09 5.39 2.62 3.464 8.343m-156.663 110.1 5.97-17.738h-74.926l-5.962 17.738c13.995 2.087 17.606 6.116 13.369 22.237l-29.607.836c-5.382.154-6.658 1.53-6.658 2.891l34.749 1.516q-.77856 2.53261-1.63 5.042l-3.75 11.15-19.819 1.066c-5.35.287-6.65 1.609-6.65 2.893l24.643 1.476-3.866 11.49-10.322.796c-5.39.418-6.65 1.585-6.65 2.892l15.332 1.214-2.01 5.962a4.60707 4.60707 0 0 1 -4.028 3.542 72.73742 72.73742 0 0 1 -10.23.564c-8.05 0-15.318-2.274-18.573-7.291-5.467-8.429-4.786-23.506 16.045-84.09 18.534-54.01 26.22-68.8 35.893-78.373a28.31012 28.31012 0 0 1 20.638-8.258c10.871 0 17.567 5.397 19.585 21.913l-11.026 1.106c-5.39.541-6.557 1.716-6.557 3.108l18.032.828c.162 2.721.223 5.69.185 8.93l-28.942.812c-5.382.155-6.658 1.585-6.658 2.892l35.446 1.547q-.25974 6.09741-.813 12.177h17.344l20.646-61.332c2.064-6.139 1.305-7.461-3.79-8.42a267.97652 267.97652 0 0 0 -45.11-4.393c-32.135 0-53.09 8.313-69.567 24.76a95.11361 95.11361 0 0 0 -11.073 13.454l-20.32 1.121c-5.366.293-6.658 1.57-6.658 2.892l23.584 1.19c-2.737 4.431-5.428 9.34-8.104 14.83l-8.822.69c-5.39.409-6.65 1.484-6.65 2.883l13.277 1.052c-1.887 4.098-3.773 8.528-5.676 13.253l-10.577.82c-5.39.417-6.658 1.616-6.658 2.891l15.294 1.215q-3.50766 9.11208-6.68 18.348-1.61728 4.68255-3.17 9.387l-12.133.935c-5.397.418-6.657 1.578-6.657 2.893l17.111 1.353c-5.66 17.698-9.31 32.197-11.01 44.313l-16.215.936c-5.358.293-6.65 1.592-6.65 2.892l22.23 1.407a76.543 76.543 0 0 0 .464 21.264l-24.48.789c-5.39.17-6.657 1.554-6.657 2.892l32.39 1.538a41.98823 41.98823 0 0 0 6.03 12.441c8.011 11.297 25.232 18.024 49.326 18.024 19.152 0 37.555-2.103 51.674-6.178 2.714-.78 3.804-1.91 4.894-5.134l22.03-65.493c4.74-14.072 7.902-17.582 19.192-20.366m-121.614-102.105 5.97-17.745h-61.774l-5.968 17.745c13.809 3 17.598 8.32 12.425 26.623l-20.807 1.151c-5.359.295-6.65 1.54-6.65 2.892l25.826 1.307c-.17.526-.34 1.044-.534 1.593l-9.666 28.695-10.763.843c-5.397.41-6.658 1.56-6.658 2.89l15.752 1.246-23.314 69.196c-1.26 3.758-2.373 3.68-2.31-.116l1.994-139.367c.147-10.948-2.645-14.683-13.014-14.683h-56.345l-5.969 17.746c8.336 2.443 11.707 5.389 10.887 13.616l-9.866.766c-5.39.417-6.658 1.484-6.658 2.892l15.704 1.244c-.719 3.255-1.864 7.138-3.386 11.776l-20.978 1.16c-5.366.295-6.658 1.509-6.658 2.885l25.85 1.306-6.573 19.502-27.52.858c-5.388.17-6.649 1.438-6.649 2.892l32.398 1.5-6.27 18.635-13.841.873c-5.367.34-6.658 1.515-6.658 2.892l18.797 1.276-6.827 20.273-32.963.836c-5.327.139-6.657 1.477-6.657 2.892l37.841 1.562-10.461 31.068-18.349 1.02c-5.367.294-6.402 1.555-6.402 2.892l22.964 1.4-.278.82c-7.438 22.076-13.223 27.728-27.388 31.308l-5.961 17.745h61.772l5.97-17.745c-15.426-3.348-18.357-9.573-10.26-33.566l38.545-114.415c1.198-3.58 2.334-3.587 2.273.124l-.99 68.887-9.928 1.028c-5.389.557-6.65 1.748-6.65 3.063l16.51.873-.256 17.575-18.365.99c-5.358.279-6.658 1.384-6.658 2.885l24.952 1.5-.417 29.15-22.16 1.128c-5.366.295-6.658 1.463-6.658 2.885l28.741 1.346-.278 19.778c-.209 10.926 2.845 14.506 12.062 14.506h36.705l55.417-164.566c7.44-22.075 13.23-27.727 27.388-31.308m-241.981 144.888 39.52-117.468c6.688-19.873 11.257-24.288 24.387-27.435l5.961-17.746h-71.314l-5.97 17.746c7.648 2.83 10.68 6.255 8.352 17.885l-21.273 1.082c-5.365.302-6.657 1.524-6.657 2.892l26.6 1.53c-.782 2.878-1.794 6.125-3.04 9.829l-1.09 3.232-46.796.796c-5.35.101-6.657 1.57-6.657 2.892l51.682 1.586-6.967 20.714-65.7.843c-5.336.07-6.658 1.53-6.658 2.891l70.55 1.663-5.143 15.263-35.977.905c-5.329.132-6.65 1.439-6.65 2.884l40.787 1.686-8.822 26.227-43.293.843c-5.35.101-6.658 1.485-6.658 2.892l48.165 1.586-8.53 25.36-27.186.852c-5.389.17-6.657 1.407-6.657 2.892l32.08 1.485c-6.68 19.856-11.25 24.279-24.38 27.418l-5.961 17.746h71.315l5.969-17.746c-10.292-3.812-12.232-8.683-3.982-33.218m-89.81 16.37-5.807-95.602c-.193-3.233.433-4.57 2.684-6.634l45.666-41.825c13.872-12.703 18.828-15.417 27.566-17.211l5.977-17.761h-65.493l-5.969 17.745c12.202 2.335 13.594 12.187-1.53 26.035l-.302.278-26.73.913c-5.39.17-6.658 1.6-6.658 2.892l27.828 1.283-16.33 14.97-17.135 1.485c-5.39.533-6.588 1.677-6.588 3.03l17.892.828-31.872 29.204 18-53.498c6.68-19.873 10.494-21.999 23.607-25.154l6.743-20.034h-71.323l-5.96 17.745c7.321 2.714 10.406 5.962 8.612 16.447l-17.536 1.044c-5.359.301-6.658 1.469-6.658 2.892l23.004 1.492c-.696 2.69-1.601 5.73-2.738 9.2l-43.432.844c-5.35.1-6.657 1.507-6.657 2.892l48.311 1.585-11.381 33.844-21.551 1.09c-5.366.295-6.658 1.33-6.658 2.892l26.36 1.523-6.518 19.386-28.393.974c-5.39.162-6.65 1.53-6.65 2.884l33.225 1.538-5.521 16.416-16.64.92c-5.366.294-6.657 1.547-6.657 2.892l21.58 1.322-7.4 21.983-30.627.882c-5.328.13-6.657 1.522-6.657 2.884l35.468 1.64-.41 1.228c-6.682 19.872-11.25 24.28-24.38 27.434l-5.97 17.746h76.249l5.968-17.746c-14.9-3.023-17.381-8.026-8.907-33.218l8.258-24.534 21.04-19.277c1.84-1.685 2.954-1.337 3.054 1.276l1.098 28.432-17.19 1.298c-5.357.38-6.61 1.64-6.61 2.985l24.009 1.183.657 16.958-24.032.997c-5.366.293-6.658 1.5-6.658 2.892l30.89 1.523.218 5.529c1.26 26.737 6.503 32.39 29.267 32.39 8.226 0 16.136-.332 21.68-.882l5.884-17.66c-9.68-1.338-12.495-4.492-13.245-16.732" fill="#010101"/></svg>