<svg height="2500" viewBox="-.407 -.279 197.666 248.117" width="1994" xmlns="http://www.w3.org/2000/svg"><g fill-rule="evenodd"><path d="m104.168.178c1.953-.457 1.744-.095 2.528 1.767 13.133 24.676 44.414 40.979 87.008 44.673 3.394.213 3.555.509 2.117 2.605-10.206 22.074-25.241 32.446-42.985 36.255-10.858 1.784-19.978.53-28.827-1.974-3.824-1.193-3.212.81.435 5.001 14.133 11.649 52.855 26.038 63.488 54.574 7.176 20.637 4.626 51.801-29.787 78.708-22.246 15.193-40.072 21.288-62.836 25.656-1.939.395-1.893-.546-3.696-3.479-11.712-18.839-35.461-37.205-88.112-42.004-.742-.043-2.2-.05-2.676-.076-1.232-.066-.867-.601-.297-1.784.821-1.705 1.698-3.618 3.352-6.252 18.991-30.304 46.77-40.482 78.383-29.896 8.268 4.059 5.385-.229 0-3.044-20.547-10.545-45.333-21.199-60.661-39.789-15.908-18.662-17.031-42.833-7.61-63.053 10.505-19.317 24.991-34.457 64.167-50.413 8.806-2.928 16.36-5.447 26.009-7.474z" fill="#000426"/><path d="m92.024 54.837c5.055 6.613 9.421 14.403 14.187 23.046 1.824 3.217 2.694 4.094 4.295 5.654 1.287 1.222.74 1.468-.979 1.087-5.28-1.732-8.578-1.766-15.532-9.173-1.886-1.983-4.863-9.34-5.096-12.868-.349-3.3-.209-5.29.19-8.398.335-1.701 1.232-1.566 2.935.652z" fill="#ed1c24"/><g fill="#9dd9dc"><path d="m99.526 13.091c15.443 23.801 42.546 36.732 77.785 42.467 1.016.165 1.083.086.103.54-6.023 2.795-13.929 5.446-25.595 6.023-11.699.609-22.232-2.519-31.959-7.934-10.728-6.79-16.969-14.131-21.665-19.758-1.712-2.126-3.486-4.807-3.948-6.574-.523-2.003.099-2.577 1.148-4.98zm-76.153 176.904c6.919-8.306 14.117-12.836 21.471-15.248 12.256-3.229 23.074-3.12 34.57 1.305 14.185 6.2 21.767 14.743 26.961 24.134 1.32 2.416 2.167 4.068 2.709 6.598-.149 1.037-.388 1.783-.671 3.023l-2.364 9.077c-.425 1.877-.713.893-1.794-1.062-2.596-5.71-15.916-20.517-27.341-25.573-14.291-7.656-29.375-8.652-45.116-4.131-3.539 1.098-6.801 2.362-9.615 3.897-.081-.448.6-1.368 1.19-2.02z"/><path d="m105.712 221.337c.34-.648.745-1.037 1.194-1.248 12.34-3.764 21.508-12.011 27.191-25.183 7.307-22.765-7.155-38.502-32.219-50.574-18.425-9.129-32.753-15.496-45.948-24.958-14.905-11.771-22.179-21.401-24.47-37.169-1.492-16.497 5.189-28.808 15.585-39.216 7.334-6.681 14.252-11.157 22.132-14.941-2.896 2.757-5.676 5.477-8.135 8.09-17.289 12.667-21.148 26.755-21.252 38.758 2.93 19.129 11.473 26.947 27.34 38.212 19.967 12.756 40.385 19.189 61.766 34.771 23.119 16.452 22.849 36.943 14.985 54.156-9.253 17.941-26.436 28.93-44.572 32.614l6.403-13.31z"/><path d="m74.005 41.118c3.735.831 6.562 4.138 4.158 10.894-5.967 12.388-.481 22.391 5.382 27.394 11.93 11.467 28.31 17.561 50.769 29.678 10.907 6.16 22.358 12.212 35.332 28.591 7.858 13.178 10.859 26.038 4.919 44.029-2.006 5.206-5.676 11.158-10.164 17.007-1.061 1.03-1.441 1.051-.462-.592 4.077-6.196 6.777-14.023 7.664-25.439-.471-14.604-6.378-27.903-22.612-41.202-18.735-13.879-36.817-20.366-55.226-30.548-11.377-5.853-21.665-13.81-26.852-23.156-2.822-6.493-6.492-21.221 4.438-35.497.853-1.115 1.543-1.408 2.655-1.16z"/></g><path d="m92.021 54.809c5.055 6.613 9.421 14.403 14.187 23.046 1.824 3.217 2.694 4.094 4.295 5.654 1.287 1.222.74 1.468-.979 1.087-5.28-1.732-8.578-1.766-15.532-9.173-1.886-1.983-4.863-9.34-5.096-12.868-.349-3.3-.209-5.29.19-8.398.335-1.701 1.232-1.566 2.935.652z" fill="#e3173e"/><path d="m61.038 36.11c2.459-2.613 5.239-5.332 8.135-8.09-7.879 3.784-14.798 8.26-22.132 14.941-10.396 10.408-17.077 22.719-15.585 39.216 2.291 15.768 9.564 25.397 24.47 37.168 13.196 9.461 27.523 15.829 45.948 24.958 25.064 12.072 39.526 27.809 32.219 50.574-5.683 13.172-14.851 21.419-27.191 25.183-.449.211-.854.6-1.194 1.248l-6.403 13.31c-10.203-19.414-41.608-38.12-75.194-41.965-1.114-.178-1.676-.347-1.931-.668 2.814-1.534 6.076-2.799 9.615-3.897 15.741-4.52 30.824-3.524 45.116 4.131 11.426 5.056 24.746 19.863 27.341 25.573 1.081 1.955 1.369 2.939 1.794 1.061l2.364-9.077c.284-1.24.523-1.986.671-3.023 11.796-9.224 17.612-19.898 10.27-33.762-5.512-8.195-18.679-16.043-38.858-26.249-6.669-3.373-14.158-6.983-22.281-11.707-32.134-21.625-38.494-35.196-36.745-58.705 3.972-21.519 19.272-36.91 40.929-48.862 11.424-6.269 29.184-13.01 37.126-14.409l-4.131 9.784c-1.05 2.402-1.672 2.977-1.148 4.979.462 1.767 2.236 4.448 3.948 6.574 4.696 5.628 10.937 12.969 21.665 19.758 9.727 5.415 20.26 8.544 31.959 7.934 11.666-.577 19.571-3.228 25.595-6.023.258-.115.482-.23.693-.386-2.123 3.169-4.925 6.039-8.243 9.017-4.058 3.076-8.715 5.552-14.133 7.51-3.985 1.388-8.735 2.917-15.546 2.701-6.509.096-14.727-1.756-20.656-5.753-11.049-8.155-18.299-17.885-26.635-28.048-2.876-3.022-7.169-5.615-11.197-5.218-4.908.749-7.34 2.73-9.456 5.456-.277.382-.601.547-.891.901-10.93 14.276-7.26 29.004-4.438 35.497 5.187 9.346 15.475 17.302 26.852 23.156 18.408 10.183 36.491 16.669 55.226 30.548 16.234 13.299 22.141 26.598 22.612 41.202-.888 11.415-3.587 19.243-7.664 25.439-.092.154-.235.412-.304.537 3.076-11.21 3.352-21.434.476-30.78.92-4.463-1.27-9.653-5.427-11.561l-5.699-6.513c.173-3.677-6.134-8.764-10.34-8.629l-5.78-4.234c-2.104-4.783-7.707-7.153-12.293-7.028l-6.574-3.502c-.614-3.19-5.969-7.006-11.967-6.336l-6.435-2.968c-.56-2.431-6.729-7.061-11.966-6.336l-6.115-3.573c-.217-2.623-6.684-7.472-11.351-7.381l-5.425-4.54c-.673-4.465-5.58-8.83-9.023-9.893a30.824 30.824 0 0 1 -2.5-6.088c1.28-6.272.027-9.598-2.419-12.611.673-17.626 5.455-23.265 10.246-30.549z" fill="#4f9eb8"/></g></svg>