<svg id="Layer_1" data-name="Layer 1" xmlns="http://www.w3.org/2000/svg" viewBox="0 0 639.96997 639.96997"><defs><style>.cls-1{fill:#fff;}.cls-2{fill:#fdb717;}</style></defs><title>20230926023928!Boston Bruins</title><path class="cls-1" d="M591.996,319.984c0-150.234-121.776-272.01-272.01-272.01-150.235,0-271.98,121.805-271.98,272.01s121.775,272.01,272.009,272.01c150.235,0,272.01-121.775,272.01-272.01"/><path d="M319.985,0C143.275,0,0,143.275,0,319.985S143.275,639.97,319.985,639.97,639.97,496.695,639.97,319.985,496.725,0,319.985,0Zm0,591.995c-150.205,0-272.009-121.775-272.009-272.01,0-150.234,121.804-271.98,272.009-271.98s272.01,121.775,272.01,272.01c0,150.234-121.775,272.009-272.01,272.009"/><path class="cls-2" d="M590.989,343.203q.99546-11.56741,1.007-23.188c0-7.788-.356-15.547-1.007-23.188H472.531V200.313l55.497-55.498a272.56165,272.56165,0,0,0-32.813-32.812L439.718,167.5,408.03,135.813H343.204V49.043q-11.56728-.99732-23.188-1.008c-7.818,0-15.548.356-23.188,1.007v86.83l-128.113.059-23.899-23.899a272.498,272.498,0,0,0-32.813,32.813l78.153,78.153v73.859H48.983q-.99588,11.56736-1.006,23.188c0,7.818.355,15.547,1.006,23.188H190.097v73.859l-15.814,15.814-62.339,62.338a272.49563,272.49563,0,0,0,32.813,32.813l23.899-23.899H296.768v86.889c7.641.652,15.37,1.007,23.189,1.007,7.818,0,15.547-.355,23.188-1.007V504.158h64.944l31.599-31.598,55.498,55.497a272.49345,272.49345,0,0,0,32.813-32.813l-55.498-55.497V343.233H590.959ZM188.734,484.08V446.825l21.441-21.441V214.647l-21.441-21.441V155.921l210.975-.089,52.743,52.744v79.9l-31.51,31.51,31.51,31.509v79.9L399.797,484.05H188.734v.03Z"/><path d="M452.481,351.495l-31.51-31.51,31.51-31.509v-79.9l-52.743-52.744-210.974.089v37.285l21.441,21.441V425.384l-21.441,21.441V484.08H399.856l52.655-52.655v-79.9l-.03-.03ZM390.261,408l-19.812,19.812H269.078V348.149l101.401-.059,19.752,19.753V408h.03Zm0-135.99-19.812,19.812H269.078V212.159l101.401-.059,19.752,19.753V272.01h.03Z"/><path class="cls-2" d="M269.078,212.159v79.663H370.449l19.812-19.812V231.853L370.508,212.1l-101.4.059h-.03Zm20.049,59.614V232.208l73.059-.059,8.026,7.996v23.543l-8.055,8.055h-73l-.03.03Zm-20.049,76.405v79.664H370.449l19.812-19.813V367.872l-19.753-19.753-101.4.089Zm20.049,59.614V368.227l73.059-.059,8.026,8.026v23.543l-8.055,8.055h-73.03Z"/></svg>