<?xml version="1.0" encoding="UTF-8" standalone="no"?>
<svg
   xmlns:dc="http://purl.org/dc/elements/1.1/"
   xmlns:cc="http://creativecommons.org/ns#"
   xmlns:rdf="http://www.w3.org/1999/02/22-rdf-syntax-ns#"
   xmlns:svg="http://www.w3.org/2000/svg"
   xmlns="http://www.w3.org/2000/svg"
   xmlns:sodipodi="http://sodipodi.sourceforge.net/DTD/sodipodi-0.dtd"
   xmlns:inkscape="http://www.inkscape.org/namespaces/inkscape"
   viewBox="0 0 333 298"
   version="1.1"
   id="svg74"
   sodipodi:docname="Anaheim_Ducks_logo_2024.svg"
   width="333"
   height="298"
   inkscape:version="0.92.5 (2060ec1f9f, 2020-04-08)">
  <metadata
     id="metadata80">
    <rdf:RDF>
      <cc:Work
         rdf:about="">
        <dc:format>image/svg+xml</dc:format>
        <dc:type
           rdf:resource="http://purl.org/dc/dcmitype/StillImage" />
        <dc:title></dc:title>
      </cc:Work>
    </rdf:RDF>
  </metadata>
  <defs
     id="defs78" />
  <sodipodi:namedview
     pagecolor="#ffffff"
     bordercolor="#666666"
     borderopacity="1"
     objecttolerance="10"
     gridtolerance="10"
     guidetolerance="10"
     inkscape:pageopacity="0"
     inkscape:pageshadow="2"
     inkscape:window-width="1920"
     inkscape:window-height="1009"
     id="namedview76"
     showgrid="false"
     inkscape:pagecheckerboard="true"
     fit-margin-top="0"
     fit-margin-left="0"
     fit-margin-right="0"
     fit-margin-bottom="0"
     inkscape:zoom="2"
     inkscape:cx="222.46387"
     inkscape:cy="156.69866"
     inkscape:window-x="1912"
     inkscape:window-y="70"
     inkscape:window-maximized="1"
     inkscape:current-layer="svg74" />
  <path
     d="m 253.41308,215.67123 c -5.01133,0.1915 -7.18431,-0.36667 -8.5496,-1.02479 -1.50713,-0.72491 -3.54666,-2.29151 -7.11805,-7.1249 23.67646,-19.77356 39.06089,-49.18867 40.06829,-82.16203 l 42.97383,-66.646412 c 0,0 -20.77091,-10.84897 -55.78587,-20.08183 13.95242,-18.93234 22.98542,-31.1984404 22.98542,-31.1984404 0,0 -24.71699,-6.54946003 -28.32198,-7.14125003 -2.05633,-0.3335 -5.56939,-0.69129 -9.34889,0.84168003 -3.12999,1.26673 -5.31976,3.36628 -6.85163,5.41631 -0.10825,0.14153 -6.34349,8.6079004 -16.20845,21.9819304 -17.48275,-11.43236 -38.35352,-18.08224 -60.74775,-18.08224 -22.39423,0 -43.265,6.64988 -60.74775,18.08224 A 37935.936,37974.931 0 0 0 89.5522,6.5495676 c -1.52347,-2.05003 -3.72117,-4.14958 -6.85163,-5.41631 -3.7795,-1.53344003 -7.28416,-1.17518003 -9.34889,-0.84168003 -3.60499,0.59179 -28.32151,7.14125003 -28.32151,7.14125003 0,0 9.05726,12.2908604 23.03488,31.2647604 -34.92304,9.21652 -55.8358,20.01551 -55.8358,20.01551 l 42.97383,66.646412 c 0.0831,2.66659 0.27483,5.30001 0.54127,7.92456 -19.35571,0.75854 -30.90231,10.23288 -30.90231,25.43181 0,15.19893 14.70179,31.01534 35.75546,36.93984 a 63.505384,63.570662 0 0 0 17.24152,2.38307 c 2.32229,0 4.69498,-0.14153 7.05086,-0.39142 3.24711,3.50781 6.71025,6.81616 10.3731,9.87417 -3.5714,4.82498 -5.61093,6.39999 -7.11759,7.1249 -1.36576,0.65812 -3.52987,1.20835 -8.55007,1.02479 C 79.62052,215.67123 0,212.15501 0,212.15501 l 15.47635,36.93097 c 1.2155,2.87491 3.21351,6.31638 6.90948,8.76624 3.85463,2.54982 7.90056,2.92489 10.72258,2.92489 h 49.0593 c 5.61092,0 11.42202,-0.38348 17.04974,-3.21635 6.15219,-3.10004 10.53127,-8.37482 14.84363,-14.17414 1.19871,-1.60864 4.42062,-5.98336 9.19912,-12.45808 L 166.5,298 209.74027,230.92854 c 4.7785,6.47472 8.00041,10.8415 9.19912,12.45808 4.30396,5.80772 8.68304,11.0741 14.84363,14.17414 5.62772,2.83287 11.43835,3.21635 17.04927,3.21635 h 49.0593 c 2.82249,0 6.86842,-0.37507 10.72258,-2.92489 3.69644,-2.44986 5.69444,-5.89133 6.90995,-8.76624 L 333,212.15501 c 0,0 -79.62005,3.51622 -79.59532,3.51622 z"
     id="path46"
     inkscape:connector-curvature="0"
     style="fill:#ffffff;stroke-width:0.99999994" />
  <path
     d="m 253.55446,219.53682 c -5.29456,0.19991 -8.19171,-0.35032 -10.37309,-1.39986 -2.35589,-1.13361 -4.85315,-3.30835 -8.558,-8.31643 -0.38308,-0.5166 -1.23183,-1.66656 -2.48933,-3.36628 24.63393,-19.20745 40.69307,-48.95559 41.34212,-82.41238 l 41.03416,-63.637932 c 0,0 -21.53708,-10.32443 -56.43539,-18.89917 a 2320746.6,2323132.1 0 0 1 23.4189,-31.7813604 c 0,0 -19.09814,-5.05852 -22.45303,-5.60828 -1.79829,-0.29146 -4.47007,-0.525 -7.27623,0.60861 -2.30596,0.93323 -3.97921,2.49984 -5.19471,4.14117 -0.11665,0.15881 -7.40922,10.0413804 -18.69779,25.3570804 -17.3829,-12.22453 -38.55323,-19.41577 -61.3632,-19.41577 -22.80998,0 -43.98171,7.19124 -61.3646,19.41577 C 93.85523,18.906288 86.56266,9.0232476 86.44601,8.8649076 c -1.22344,-1.64133 -2.88828,-3.20794 -5.19471,-4.14117 -2.80523,-1.13361 -5.47794,-0.90007 -7.27577,-0.60861 -3.36329,0.55022 -22.45256,5.60828 -22.45256,5.60828 L 74.94094,41.504768 c -34.89831,8.57474 -56.43493,18.89917 -56.43493,18.89917 l 41.0337,63.637932 a 108.40537,108.5168 0 0 0 1.10725,13.35768 c -0.80722,-0.0332 -31.6848,-2.09161 -31.6848,21.3154 0,14.83273 14.94349,27.97369 32.75893,32.98176 8.10819,2.28311 16.50848,2.81652 25.09121,1.57455 4.28809,4.79182 8.98307,9.21651 14.06113,13.18299 a 647.47579,648.14134 0 0 0 -2.48094,3.36628 c -3.70437,5.00808 -6.20211,7.19123 -8.55753,8.31643 -2.18184,1.04954 -5.07853,1.59977 -10.37356,1.39986 l -73.52619,-3.24998 13.12,31.2984 c 1.06572,2.49983 2.66431,5.17436 5.47794,7.03289 2.93028,1.94167 6.08546,2.28311 8.58319,2.28311 h 49.0593 c 5.47794,0 10.52241,-0.39983 15.30931,-2.80811 5.26143,-2.64977 9.18278,-7.24121 13.46995,-13.02419 1.49033,-2.00846 6.07752,-8.21648 12.82883,-17.37414 l 42.7242,66.25453 42.72374,-66.25453 c 6.75177,9.14925 11.3385,15.36568 12.82883,17.37414 4.29557,5.79138 8.20852,10.37442 13.46995,13.02419 4.78737,2.40828 9.83183,2.80811 15.30977,2.80811 h 49.0593 c 2.50567,0 5.65245,-0.34144 8.58273,-2.28311 2.8141,-1.86647 4.42062,-4.53306 5.47794,-7.03289 l 13.12093,-31.2984 -73.52712,3.24998 z"
     id="path48"
     inkscape:connector-curvature="0"
     style="fill:#010101;stroke-width:0.99999994" />
  <path
     d="m 250.16645,55.205288 c 14.16099,3.30836 27.77232,7.51633 40.79246,12.59961 l -19.96322,30.95649 c -3.5798,-16.19055 -10.83083,-31.01488 -20.82924,-43.5561 z M 166.5084,229.02937 a 107.24912,107.35936 0 0 1 -21.95282,-2.26676 l 21.95282,34.04813 21.95329,-34.04813 a 107.13434,107.24446 0 0 1 -21.95329,2.26676 z M 82.85035,55.205288 c -14.16052,3.30836 -27.77185,7.51633 -40.79246,12.59961 l 19.96369,30.95649 c 3.57933,-16.19055 10.83083,-31.01488 20.82877,-43.5561 z"
     id="path50"
     inkscape:connector-curvature="0"
     style="fill:#89734c;stroke-width:0.99999994" />
  <path
     d="m 253.14665,48.188278 c 16.85843,4.01646 33.22507,9.34123 48.98464,16.0906 l -29.30418,45.447782 a 107.9117,108.02262 0 0 0 -1.83142,-10.974612 l 19.96322,-30.95649 c -13.01174,-5.08328 -26.62354,-9.28284 -40.79246,-12.59914 -0.37469,-0.47503 -0.75777,-0.94164 -1.14039,-1.40826 1.40682,-1.90851 2.7889,-3.78338 4.12899,-5.59988 z M 188.46169,226.76168 166.5084,260.8098 144.55558,226.76168 A 104.88857,104.99638 0 0 1 133.8162,223.912 l 32.6922,50.70528 32.6922,-50.70528 a 107.28412,107.39439 0 0 1 -10.74731,2.84968 z M 62.02111,98.752048 42.05789,67.795558 c 13.01221,-5.08328 26.62354,-9.28284 40.79246,-12.59914 0.37469,-0.47503 0.75777,-0.94164 1.14085,-1.40826 -1.40728,-1.90851 -2.78889,-3.78338 -4.12945,-5.59988 -16.85797,4.01646 -33.22506,9.34123 -48.98418,16.0906 l 29.30372,45.447782 a 107.91263,108.02356 0 0 1 1.83189,-10.974612 z"
     id="path52"
     inkscape:connector-curvature="0"
     style="fill:#ffffff;stroke-width:0.99999994" />
  <path
     d="m 218.19002,59.945728 c 19.60533,-26.59018 33.93243,-46.03117 34.37384,-46.61456 1.41521,-1.90804 2.93028,-2.21631 5.26984,-1.83284 2.7805,0.4498 7.7587,1.69132 11.14719,2.59979 0,0 -19.18119,26.03202 -44.45578,60.32163 -1.92288,-5.08328 -4.04593,-9.92461 -6.33509,-14.47402 z m -101.02415,3.18272 a 279777.52,280065.11 0 0 0 -36.7134,-49.78887 c -1.41521,-1.90804 -2.93028,-2.21632 -5.26937,-1.83331 -2.78096,0.45027 -7.75917,1.69178 -11.14719,2.60026 0,0 20.83718,28.27309 47.67722,64.69634 1.34009,-5.37474 3.18831,-10.64112 5.45274,-15.67442 z M 253.83769,227.0111 c -12.04633,0.45821 -17.54107,-2.36625 -25.21672,-12.74907 a 14668.404,14683.481 0 0 1 -10.68898,-14.48242 c -3.27184,3.08276 -6.98508,5.79932 -11.04734,8.13288 11.23024,15.23209 19.08927,25.88161 21.17033,28.68972 8.08346,10.89942 11.64645,12.80793 22.78571,12.80793 h 49.0593 c 3.69598,0 5.61932,-1.05842 7.19271,-4.75819 1.57339,-3.70819 8.5412,-20.37376 8.5412,-20.37376 0,0 -47.2778,2.18315 -61.78827,2.73291 z m -139.25261,-26.55655 -10.19811,13.81589 c -7.67565,10.37441 -13.16993,13.19887 -25.21626,12.74907 -14.51048,-0.54976 -61.78828,-2.73338 -61.78828,-2.73338 0,0 6.96781,16.67445 8.5412,20.37423 1.57386,3.70818 3.49674,4.75772 7.19318,4.75772 h 49.0593 c 11.13039,0 14.69339,-1.90804 22.78525,-12.80746 2.10625,-2.84127 10.12346,-13.69912 21.56181,-29.2152 -3.83783,-1.98324 -7.8007,-4.2911 -11.93809,-6.94087 z"
     id="path54"
     inkscape:connector-curvature="0"
     style="fill:#cf4520;stroke-width:0.99999994" />
  <path
     d="m 77.54739,18.331778 -13.51148,-4.22478 c 3.38802,-0.90801 8.36623,-2.14952 11.14719,-2.59979 2.33909,-0.38301 3.85416,-0.0747 5.26937,1.8333 0.45821,0.60815 15.91776,21.58211 36.7134,49.78887 a 96.474281,96.573449 0 0 0 -2.37268,5.77457 C 93.44788,39.922288 77.54739,18.331778 77.54739,18.331778 Z m 143.24815,47.08071 c 20.03834,-27.20674 34.67387,-47.08071 34.67387,-47.08071 l 13.51148,-4.22478 c -3.38849,-0.90801 -8.36669,-2.14952 -11.14719,-2.59979 -2.33956,-0.38301 -3.85463,-0.0747 -5.26984,1.8333 -0.43301,0.5918 -14.76804,20.02391 -34.37384,46.6141 0.89915,1.77492 1.7647,3.59982 2.60552,5.46629 z M 114.58508,200.45502 104.38697,214.27091 c -7.67565,10.37441 -13.16993,13.19934 -25.21626,12.74953 -14.49415,-0.55022 -61.72156,-2.72497 -61.78828,-2.73337 l 14.26924,6.27481 c 0,0 38.41138,1.44983 49.66682,1.70813 11.7883,0.2667 18.79764,-3.33312 27.16433,-14.49083 1.0326,-1.3751 4.87836,-6.58309 10.70625,-14.47402 a 166.48227,166.6534 0 0 1 -4.60399,-2.85014 z m 139.25261,26.55702 c -12.04633,0.45821 -17.54107,-2.36672 -25.21672,-12.74954 a 14089.21,14103.692 0 0 1 -10.68898,-14.48242 57.417591,57.476611 0 0 1 -4.11266,3.50827 c 5.82743,7.89933 9.68205,13.10779 10.71418,14.48242 8.35829,11.15771 15.3681,14.75753 27.16433,14.49083 11.25545,-0.2583 49.66729,-1.70813 49.66729,-1.70813 l 14.26877,-6.27481 c -0.0663,0 -47.28573,2.18362 -61.78827,2.73338 z"
     id="path56"
     inkscape:connector-curvature="0"
     style="fill:#ffffff;stroke-width:0.99999994" />
  <path
     d="m 281.24373,235.7694 c -0.34949,4.74138 -0.60799,8.84939 -0.64952,13.64915 h -4.17051 c 0.44934,-2.69975 1.83142,-10.65794 2.96341,-14.56603 0.38308,-1.30784 0.63271,-1.97484 1.38208,-1.83284 0.7909,0.14152 0.58279,1.19994 0.46614,2.74972 z m -11.96328,9.71629 c 0.60798,0.05 0.81609,-0.59179 0.999,-1.77492 1.26543,-8.17491 2.37268,-12.09095 2.37268,-12.09095 l -0.0415,-0.0168 c -1.09046,0.0416 -2.17298,0.0747 -3.24664,0.10836 -0.35789,2.2663 -0.94068,6.76619 -0.7741,11.34922 0.0579,1.51662 0.28276,2.38307 0.68264,2.4251 z m 19.07294,-2.19156 c -0.0336,1.05795 0.13298,1.34988 0.51606,1.40826 0.43301,0.0663 0.70737,-0.2667 0.95747,-1.27514 1.65645,-6.73302 3.20511,-11.39919 3.61293,-12.57438 -1.11566,0.0416 -2.31436,0.0836 -3.5798,0.13359 -0.51606,2.74132 -1.38208,7.87458 -1.50666,12.30767 z M 60.36467,231.61982 c 0,0 1.09885,3.91604 2.37268,12.09095 0.18291,1.17472 0.39102,1.8249 0.999,1.77492 0.39942,-0.0336 0.63272,-0.90848 0.68265,-2.4251 0.16657,-4.57462 -0.41622,-9.08292 -0.7741,-11.34922 -1.07413,-0.0336 -2.15618,-0.0752 -3.2471,-0.10836 l -0.0415,0.0168 z m -16.21732,13.08257 c 0.38308,-0.0584 0.54966,-0.35031 0.51653,-1.40826 -0.12505,-4.43309 -0.98267,-9.56635 -1.50713,-12.30767 -1.26543,-0.05 -2.47254,-0.092 -3.57979,-0.13359 0.40827,1.17519 1.95647,5.84136 3.61338,12.57438 0.24964,1.00844 0.52447,1.34147 0.95701,1.27514 z m 9.47394,-9.84987 c -0.38261,-1.30784 -0.63271,-1.97484 -1.38161,-1.83284 -0.7909,0.14152 -0.58279,1.19994 -0.46661,2.74972 0.34996,4.74138 0.60799,8.84939 0.64952,13.64915 h 4.17098 c -0.44981,-2.69975 -1.83143,-10.65794 -2.96388,-14.56603 z"
     id="path58"
     inkscape:connector-curvature="0"
     style="fill:#cf4520;stroke-width:0.99999994" />
  <path
     d="m 70.38781,231.94538 c 0.59072,3.34152 1.73157,10.00775 2.7469,17.48251 H 56.5847 c -0.44934,-2.69975 -1.83142,-10.65747 -2.96387,-14.56603 -0.38262,-1.30784 -0.63272,-1.97484 -1.38162,-1.83284 -0.79089,0.14153 -0.58279,1.19994 -0.46614,2.74972 0.34949,4.74138 0.60752,8.84939 0.64905,13.64915 H 37.19587 c -2.46414,-9.21605 -4.41221,-15.44088 -5.55306,-18.87395 h 0.0252 c 0,0 3.15519,0.13358 7.91689,0.30827 0.40828,1.19154 1.96487,5.85818 3.61339,12.57438 0.24963,1.00844 0.52446,1.34147 0.957,1.27515 0.38308,-0.0584 0.54966,-0.35032 0.51653,-1.40826 -0.12505,-4.4331 -0.98267,-9.56636 -1.50713,-12.30768 5.07853,0.1831 11.24704,0.40823 17.24945,0.61655 l -0.0415,0.0163 c 0,0 1.09885,3.9165 2.37268,12.09141 0.18291,1.17472 0.39102,1.8249 0.99901,1.77493 0.39941,-0.0336 0.63271,-0.90848 0.68264,-2.42511 0.16658,-4.57462 -0.41621,-9.08292 -0.76617,-11.34921 2.33116,0.0831 4.60399,0.15834 6.73498,0.22466 z m 230.96892,-1.39144 c 0,0 -3.15518,0.11677 -7.91735,0.29146 -0.40781,1.192 -1.96441,5.85817 -3.61292,12.57438 -0.24964,1.0089 -0.52447,1.34193 -0.95748,1.27514 -0.38308,-0.0584 -0.54966,-0.34985 -0.51606,-1.40826 0.12458,-4.4331 0.9822,-9.56636 1.50667,-12.30768 -5.07806,0.1831 -11.24705,0.40824 -17.24945,0.61656 l 0.042,0.0168 c 0,0 -1.09932,3.9165 -2.37268,12.09095 -0.18338,1.17472 -0.39148,1.8249 -0.999,1.77492 -0.39988,-0.0336 -0.63272,-0.90848 -0.68265,-2.4251 -0.16657,-4.57463 0.41622,-9.08246 0.7657,-11.34922 -2.33115,0.0831 -4.60352,0.15834 -6.73497,0.22513 -0.59119,3.34153 -1.73157,10.00776 -2.74737,17.48204 h 16.55047 c 0.44934,-2.69975 1.83143,-10.65746 2.96341,-14.56556 0.38308,-1.3083 0.63272,-1.97483 1.38208,-1.83331 0.7909,0.14153 0.58279,1.19994 0.46614,2.74973 -0.34949,4.74137 -0.60752,8.84938 -0.64951,13.64914 h 15.22671 c 2.46414,-9.21604 4.41222,-15.44041 5.5526,-18.87395 h -0.0247 z M 169.47181,26.665968 c -25.02495,0 -52.86353,38.0146 -52.86353,70.92957 0,13.649152 4.7953,20.265402 12.87036,18.298972 -1.27383,-4.74137 -0.12505,-10.09136 3.45474,-13.61598 -1.7563,8.37436 3.33856,14.89066 11.6054,14.49083 14.08587,-0.68334 26.20686,-21.848812 48.55116,-21.848812 6.44382,0 12.31277,2.74132 14.91829,7.232802 -0.0163,0 -3.09685,-1.61658 -10.21444,-1.61658 -2.51407,0 -4.89515,0.31669 -7.18478,0.8501 3.52146,24.94044 -23.49309,35.65629 -38.77766,23.08191 -2.60599,1.03319 -5.29457,1.6418 -8.10866,1.6418 -4.43695,0 -7.87536,-1.44189 -10.31477,-3.66661 -7.22584,9.86623 -18.27318,20.55732 -32.32592,28.04842 12.29597,6.96657 22.67747,16.32414 28.82125,26.39027 -33.45836,-22.11551 -54.40379,-30.58142 -71.68683,-30.58142 -12.90349,0 -20.1382,4.71615 -20.1382,12.46555 0,6.13329 4.52887,12.55804 11.44722,17.51614 10.63112,7.12444 26.55681,10.72426 39.30212,6.79094 -16.1086,-12.84903 -26.08228,-19.21539 -35.83058,-22.99877 36.76286,-0.47503 63.41159,49.78092 114.22719,49.78092 20.58801,0 40.09349,-8.24964 50.29954,-21.399 8.0088,-10.31603 11.63852,-25.2235 11.63852,-45.74766 0,-59.046482 -29.05408,-116.051802 -59.69042,-116.051802 z m -34.07429,60.7051 c -0.32429,3.50827 -2.38901,6.1912 -4.60352,5.98288 -2.21451,-0.20832 -3.74637,-3.21634 -3.42161,-6.73302 0.32475,-3.50827 2.38948,-6.1828 4.60399,-5.98289 2.21404,0.20832 3.7459,3.21635 3.42114,6.73303 z m 7.0434,-21.9824 c -1.62378,3.12479 -4.60399,4.79976 -6.66031,3.73341 -2.05633,-1.06683 -2.40582,-4.46673 -0.7825,-7.59947 1.62332,-3.12479 4.60399,-4.79976 6.65985,-3.7334 2.05633,1.06682 2.40628,4.46672 0.78296,7.59946 z m 9.76511,26.99047 c -1.41521,3.23316 -4.24564,5.10804 -6.33556,4.19115 -2.08946,-0.91642 -2.63072,-4.27475 -1.22344,-7.4995 1.41521,-3.23316 4.24564,-5.10804 6.33509,-4.19115 2.08946,0.91642 2.63072,4.27475 1.22391,7.4995 z m -2.63072,-43.59766 c -1.57339,-1.70813 -0.75777,-5.02489 1.83142,-7.42477 2.5892,-2.39148 5.96088,-2.94964 7.53427,-1.24992 1.57339,1.70859 0.7573,5.02489 -1.83142,7.42477 -2.58919,2.39148 -5.96088,2.94964 -7.53427,1.24992 z m 16.45855,24.56537 c -2.52246,2.45827 -5.87735,3.10798 -7.49274,1.44983 -1.61492,-1.65815 -0.88235,-4.99967 1.64852,-7.45793 2.52246,-2.45827 5.87735,-3.10798 7.49227,-1.44983 1.61539,1.65815 0.87442,4.99967 -1.64805,7.45793 z m 19.65527,-12.74953 c -3.20511,1.45823 -6.5852,0.92529 -7.5506,-1.19994 -0.96588,-2.12477 0.84875,-5.02443 4.05386,-6.48267 3.20511,-1.45824 6.58519,-0.92529 7.55106,1.19994 0.96541,2.12477 -0.84922,5.02443 -4.05432,6.48267 z m -52.23922,92.011902 c -2.2565,0.59133 -4.80369,-1.70019 -5.69444,-5.10804 -0.89075,-3.40831 0.2165,-6.64988 2.46414,-7.24167 2.25603,-0.59133 4.8037,1.70018 5.69444,5.10803 0.89075,3.40832 -0.2165,6.64988 -2.46414,7.24168 z m 10.36423,20.04026 c -1.95601,1.23357 -5.06966,-0.19151 -6.94308,-3.17478 -1.87295,-2.98326 -1.80623,-6.39952 0.15818,-7.63262 1.95647,-1.23357 5.07013,0.1915 6.94308,3.17477 1.87342,2.9828 1.80669,6.39952 -0.15818,7.63263 z m 0.57439,-33.0481 c -1.63965,-3.11638 -1.30696,-6.5247 0.74937,-7.61628 2.05633,-1.09157 5.06173,0.55817 6.71024,3.67503 1.63965,3.11638 1.30696,6.5247 -0.74936,7.61627 -2.05633,1.09158 -5.06173,-0.55863 -6.71025,-3.67502 z m 16.3923,49.72208 c -1.44881,1.75857 -4.82843,1.36669 -7.54267,-0.88326 -2.71377,-2.24154 -3.73797,-5.49104 -2.28916,-7.24962 1.44834,-1.7581 4.82842,-1.36622 7.5422,0.88326 2.71424,2.24154 3.73797,5.49151 2.28963,7.24962 z m 3.84622,-30.62299 c -1.62379,1.64974 -4.97867,0.9748 -7.48434,-1.50822 -2.50567,-2.47508 -3.21351,-5.82501 -1.59019,-7.47475 1.62332,-1.64974 4.97821,-0.97481 7.48434,1.50821 2.50567,2.47509 3.21351,5.82455 1.59019,7.47476 z m 18.20645,11.79108 c -1.07365,2.16634 -4.50367,2.65818 -7.65885,1.09157 -3.15518,-1.5666 -4.83682,-4.59144 -3.7627,-6.76665 1.07366,-2.16634 4.50367,-2.65818 7.65885,-1.09158 3.15518,1.56661 4.83683,4.59145 3.7627,6.76666 z m 3.91295,-24.95726 c -3.2303,1.39985 -6.62672,0.73332 -7.59259,-1.48299 -0.95748,-2.21679 0.88235,-5.15802 4.11265,-6.55787 3.23031,-1.40032 6.62672,-0.73332 7.5926,1.48299 0.957,2.21679 -0.88282,5.15802 -4.11266,6.55787 z m 17.76551,32.30683 c -0.57439,2.3499 -3.81309,3.5746 -7.23424,2.73291 -3.42161,-0.84168 -5.72804,-3.42466 -5.14525,-5.78297 0.57439,-2.3499 3.82149,-3.5746 7.23471,-2.73291 3.42161,0.84122 5.72757,3.42466 5.14478,5.78297 z m 4.92828,-39.46443 c -3.46314,0.62496 -6.62672,-0.82534 -7.05973,-3.23316 -0.43254,-2.40829 2.0232,-4.87496 5.48634,-5.49992 3.46314,-0.62496 6.62672,0.81646 7.05973,3.23316 0.43301,2.40829 -2.02319,4.87496 -5.48634,5.49992 z m -103.95442,0.39982 c -2.37268,-9.67472 -0.24963,-17.00748 7.34296,-22.34065 2.28077,4.25841 5.60253,6.72462 9.76511,7.17489 -4.67025,5.59147 -10.3479,10.59908 -17.10807,15.16576 z"
     id="path60"
     inkscape:connector-curvature="0"
     style="fill:#ffffff;stroke-width:0.99999994" />
  <path
     d="m 169.08079,19.058558 c -28.28838,0 -59.8318,40.11415 -59.8318,79.11197 0,4.050082 0.34109,7.666252 0.999,10.816272 -11.89656,7.48269 -16.16739,19.824 -12.17979,34.38115 -1.72317,0.98368 -3.51306,1.94167 -5.35289,2.89172 -9.82343,-3.29154 -15.89209,-4.60825 -24.40903,-5.70777 -10.87236,-1.19994 -22.38583,-0.0836 -29.48709,4.99127 -2.19771,1.575 -3.86256,3.46623 -4.98661,5.64938 -1.11565,2.17521 -1.72317,4.68346 -1.72317,7.54155 0,3.25791 0.74937,6.29957 2.08106,9.12449 1.82349,3.85812 4.76217,7.34117 8.48334,10.39917 5.24464,4.54987 12.13779,8.24124 19.88857,10.42439 9.50707,2.67499 23.01015,2.27517 33.56615,-0.90801 a 268.07987,268.35544 0 0 0 2.57239,1.57501 c 27.49749,20.71519 46.17055,28.42302 68.53165,28.42302 24.29238,0 45.60456,-9.29918 57.16796,-25.30663 8.12499,-11.24927 12.80363,-27.43187 12.52087,-50.30547 C 236.12211,78.021898 205.64395,19.083318 169.08079,19.083318 Z m -56.25201,97.377772 c 2.28077,4.25794 5.60253,6.72461 9.76511,7.17442 -4.67025,5.59147 -10.3479,10.59954 -17.10807,15.16623 -2.37268,-9.67472 -0.24963,-17.00748 7.34296,-22.34065 z m 104.69493,72.02115 c -10.19812,13.1489 -29.7036,21.39854 -50.29954,21.39854 -50.8156,0 -77.46433,-50.26389 -114.22719,-49.78046 9.7483,3.78292 19.72198,10.14928 35.83058,22.99878 -12.73738,3.93331 -28.671,0.33349 -39.30212,-6.79141 -6.90995,-4.9581 -11.44722,-11.38238 -11.44722,-17.51567 0,-7.7494 7.23471,-12.46602 20.1382,-12.46602 11.23071,0 24.00962,3.57507 40.75093,12.14093 9.033,4.61666 19.21432,10.68269 30.9359,18.43255 -6.14378,-10.05773 -16.52528,-19.41576 -28.82125,-26.39027 14.05274,-7.48269 25.10008,-18.1822 32.32592,-28.04001 2.43941,2.22472 5.86942,3.66614 10.31477,3.66614 2.81409,0 5.50267,-0.61655 8.10866,-1.64133 15.28457,12.57438 42.29912,1.86647 38.77766,-23.08191 2.28963,-0.53341 4.67071,-0.8501 7.18478,-0.8501 7.12599,0 10.20651,1.61658 10.21444,1.61658 -2.60552,-4.491482 -8.47447,-7.232802 -14.91829,-7.232802 -22.3443,0 -34.46529,21.165462 -48.55116,21.848812 -8.26684,0.39982 -13.3533,-6.11647 -11.6054,-14.49083 -3.57979,3.52462 -4.72857,8.87414 -3.45474,13.61551 -8.07506,1.96689 -12.87036,-4.64936 -12.87036,-18.298972 0,-32.9145 27.84698,-70.92911 52.86353,-70.92911 30.63634,0 59.69042,57.00486 59.69042,116.051812 0,20.51528 -3.62972,35.42322 -11.63852,45.74765 z"
     id="path62"
     inkscape:connector-curvature="0"
     style="fill:#010101;stroke-width:0.99999994" />
  <path
     d="m 170.68731,120.92034 c -4.0044,1.66656 -8.08346,1.25833 -11.03054,-0.72491 6.3603,-4.28317 12.64546,-10.02457 19.79665,-14.19096 1.14085,5.83295 -2.61392,12.35765 -8.76611,14.91587 z"
     id="path64"
     inkscape:connector-curvature="0"
     style="fill:#cf4520;stroke-width:0.99999994" />
  <path
     d="m 135.39799,87.371998 c -0.32476,3.50827 -2.38948,6.1828 -4.60399,5.98288 -2.21451,-0.20832 -3.74637,-3.21634 -3.42161,-6.73302 0.32475,-3.5078 2.38948,-6.1828 4.60399,-5.98288 2.2145,0.20832 3.7459,3.21634 3.42161,6.73302 z m 6.26044,-29.57345 c -2.05633,-1.06636 -5.037,0.6002 -6.66032,3.7334 -1.62332,3.1248 -1.27383,6.53265 0.7825,7.59947 2.05632,1.06635 5.03699,-0.60021 6.66031,-3.73341 1.62332,-3.12479 1.27337,-6.53264 -0.78249,-7.59946 z m 17.27417,-17.68242 c -1.57339,-1.70813 -4.94507,-1.14996 -7.53426,1.24992 -2.5808,2.39147 -3.40482,5.71665 -1.83143,7.42477 1.57339,1.70813 4.94508,1.14996 7.53427,-1.24992 2.58919,-2.39147 3.40482,-5.71617 1.83142,-7.42477 z m -7.95048,44.76444 c -2.08945,-0.91689 -4.91988,0.9664 -6.33509,4.19115 -1.41521,3.23316 -0.86602,6.5915 1.22344,7.49997 2.08992,0.91642 4.92035,-0.96686 6.33556,-4.19161 1.41521,-3.23316 0.86602,-6.5915 -1.22391,-7.49951 z m 16.70026,-18.99072 c -1.61539,-1.65815 -4.97028,-1.00843 -7.49274,1.44983 -2.52247,2.45827 -3.26344,5.79979 -1.64852,7.45794 1.61539,1.65815 4.97028,1.00843 7.49274,-1.44983 2.52247,-2.45827 3.26344,-5.79979 1.64852,-7.45794 z m 22.06947,-11.78267 c -0.96587,-2.12477 -4.34549,-2.65818 -7.55106,-1.19994 -3.20511,1.45824 -5.01974,4.3663 -4.05387,6.48313 0.96541,2.12477 4.3455,2.65818 7.5506,1.19994 3.20511,-1.45824 5.02021,-4.36677 4.05433,-6.48313 z M 150.949,181.19993 c -1.44881,1.75857 -0.42461,5.00013 2.28916,7.24961 2.71424,2.24154 6.09386,2.64183 7.54267,0.88326 1.44834,-1.75811 0.42461,-4.99967 -2.28963,-7.24962 -2.71378,-2.24154 -6.09386,-2.64136 -7.5422,-0.88325 z m -13.91929,-19.35692 c -1.95648,1.2331 -2.0316,4.64936 -0.15818,7.63263 1.87295,2.98327 4.9782,4.40834 6.94308,3.17477 1.95601,-1.2331 2.03113,-4.64936 0.15818,-7.63263 -1.87342,-2.98326 -4.97868,-4.40834 -6.94308,-3.17477 z m -6.8101,-21.5821 c -2.25603,0.59133 -3.35489,3.83289 -2.46414,7.24121 0.89075,3.40785 3.43841,5.69936 5.69444,5.10803 2.25604,-0.59179 3.35489,-3.83336 2.46414,-7.24121 -0.89074,-3.40831 -3.43841,-5.69983 -5.69444,-5.10803 z m 41.19234,24.55696 c -1.07412,2.16634 0.60752,5.19959 3.7627,6.76619 3.15518,1.5666 6.5852,1.07476 7.65885,-1.09158 1.07413,-2.1668 -0.60752,-5.19958 -3.7627,-6.76618 -3.15518,-1.56661 -6.58519,-1.07523 -7.65885,1.09157 z m 20.71259,9.98253 c -0.57439,2.3499 1.73157,4.94129 5.14478,5.78297 3.41322,0.84169 6.65985,-0.38301 7.23424,-2.73291 0.5744,-2.3499 -1.73157,-4.94175 -5.14478,-5.78297 -3.42161,-0.84169 -6.65985,0.38301 -7.23424,2.73291 z m -36.56362,-25.07356 c -1.62332,1.64974 -0.91548,4.99127 1.59019,7.47475 2.50566,2.47462 5.85262,3.14955 7.48434,1.50822 1.63172,-1.65021 0.91548,-4.99173 -1.59019,-7.47475 -2.50614,-2.47462 -5.85263,-3.14955 -7.48434,-1.50822 z m -10.42302,-17.7408 c -2.05586,1.09158 -2.39742,4.49989 -0.7489,7.61628 1.63965,3.11639 4.64505,4.75819 6.70978,3.67502 2.05632,-1.09158 2.39741,-4.49989 0.74936,-7.61628 -1.64011,-3.11639 -4.64551,-4.75819 -6.71024,-3.67502 z m 45.72121,6.99973 c -0.95748,-2.21632 -4.36229,-2.88332 -7.5926,-1.48346 -3.22984,1.40032 -5.06966,4.33314 -4.11265,6.55833 0.95747,2.21631 4.36229,2.88284 7.59259,1.48299 3.23031,-1.39985 5.07013,-4.33314 4.11266,-6.55786 z m 24.06747,-6.10807 c -0.43301,-2.40828 -3.59659,-3.85811 -7.05973,-3.23316 -3.46314,0.62496 -5.91888,3.08323 -5.48587,5.49992 0.43254,2.40829 3.59612,3.85812 7.05926,3.23316 3.46361,-0.62496 5.91935,-3.08322 5.48634,-5.49992 z"
     id="path66"
     inkscape:connector-curvature="0"
     style="fill:#010101;stroke-width:0.99999994" />
  <path
     d="m 49.53384,176.28246 c 10.63065,7.12491 26.55634,10.72473 39.29372,6.79141 -16.1086,-12.84949 -26.08228,-19.21539 -35.83058,-22.99877 -7.11806,0.15834 -12.01321,4.06643 -9.20752,11.15771 1.63172,1.79174 3.5714,3.49146 5.73598,5.04965 z m 117.69873,33.5731 c 20.58754,0 40.09302,-8.24918 50.29954,-21.39854 8.0088,-10.31603 11.63852,-25.22397 11.63852,-45.74766 0,-31.04009 -8.02514,-61.513152 -20.09667,-83.437162 a 459.61696,460.0894 0 0 0 2.83882,6.35001 c 13.52828,29.74814 21.76992,91.553232 -0.2249,118.618442 -17.69039,21.75679 -65.96719,29.523 -110.03988,-1.74176 18.47335,13.20774 38.62834,27.35667 65.58457,27.35667 z M 188.17006,88.979238 c -19.97162,0.525 -33.79152,19.923952 -44.7138,21.090262 -5.42802,0.57498 -9.3741,-2.5414 -10.52288,-7.79097 -1.7563,8.37436 3.33856,14.89066 11.6054,14.49083 14.08587,-0.68334 26.20686,-21.848812 48.55116,-21.848812 6.44382,0 12.31277,2.74132 14.91829,7.232802 -2.18091,-6.733022 -9.09086,-13.466042 -19.83817,-13.182522 z m -58.69142,26.914802 c -7.8007,1.9001 -12.5372,-4.19955 -12.85356,-16.907052 1.14878,10.266052 8.08346,11.765862 12.63706,10.190852 a 14.627128,14.642164 0 0 0 0.2165,6.7162 z"
     id="path68"
     inkscape:connector-curvature="0"
     style="fill:#89734c;stroke-width:0.99999994" />
</svg>
