<svg id="Layer_1" data-name="Layer 1" xmlns="http://www.w3.org/2000/svg" viewBox="0 0 280 300"><defs><style>.cls-1{fill:#fff;}.cls-2{fill:#e56c25;}.cls-3{fill:#203c73;}</style></defs><title>edmonton oilers logo</title><path class="cls-1" d="M140,75.44A74.56,74.56,0,1,0,214.56,150,74.63,74.63,0,0,0,140,75.44ZM152,105a12,12,0,0,1-24,0c0-8.42,7.3-12.92,12-24.68,4.72,11.76,12,16.26,12,24.68ZM140,221.11A71.11,71.11,0,0,1,135.85,79l-8.24,13a23.89,23.89,0,0,0-4.11,12.73c0,9.78,8.67,16.24,16.5,16.24s16.5-6.46,16.5-16.24A23.89,23.89,0,0,0,152.39,92l-8.24-13A71.11,71.11,0,0,1,140,221.11Z"/><path class="cls-1" d="M156.64,87.53c2.74,3.8,6.28,9.28,6.28,17,0,11.94-10.1,23.1-22.92,23.1s-22.92-11.16-22.92-23.1c0-7.68,3.55-13.16,6.28-17a64.64,64.64,0,1,0,33.28,0ZM99,193.55a50.43,50.43,0,0,1-12.6-30.44V139c0-3.5,1.35-8.14,6.39-8.14h4.89c2.44,0,6.43.73,6.43,6.1v53.7c0,4.4-2.76,5.55-5.11,2.85Zm12.68,11.3a43.54,43.54,0,0,1-10.56-8.46,3.13,3.13,0,0,0,2.47-.36,4.62,4.62,0,0,0,1.87-3.78V167.7a2.77,2.77,0,0,0,2.39-2.8V143.43c0-2-1.17-2.85-2.36-2.85V131h10.09v9.6a2.68,2.68,0,0,0-2.36,2.85v21.42c0,1.53.88,2.85,1.95,2.85v34.47c0,2.28-1.79,3.66-3.49,2.68ZM129,211.41A45,45,0,0,1,114,206.07a3,3,0,0,0,2.4-2.92V167.7a2.93,2.93,0,0,0,2.77-2.85V143.43c0-1.88-1.17-2.85-2.28-2.85V131h10.9v9.6c-1.18,0-3.17,1-3.17,2.85,0,.89,0,20.31,0,21.13,0,1.9.09,3.17,2.1,3.17s2.21-.91,2.21-3v-7h4.64v49.71a3.82,3.82,0,0,1-4.65,3.95Zm18.65.49a45.6,45.6,0,0,1-7.74.56,77.38,77.38,0,0,1-7.82-.4s2.76-.67,2.76-4.37v-40c1.16,0,1.79-1.21,1.79-2.85,0,0,.06-20,0-21.42,0-1.69-1.13-2.85-3.91-2.85V131h20.1v15.63h-5.11v-3.16c0-1.38-.24-3-2-3-2.2,0-2.54,1.44-2.54,3.32,0,.27,0,2.45,0,4.9h5.07v7h-5.07c0,3.66,0,8.4,0,8.73,0,2.05.09,3.4,2.1,3.4s2.21-.95,2.21-3.4v-6.64h5.29v48.58c0,3-2.22,5-5.1,5.51Zm28.06-18c-.08,4.06-.37,5.24-1.27,6.06a40.36,40.36,0,0,1-8,5.65c.17-.14.66-.89.6-4.8v-43.2c0-1.87-.79-3.17-2.19-3.17-1.7,0-2.16,1.46-2.16,2.84v7.59a3.1,3.1,0,0,0,3,2.92v34c0,2.52-.66,4.73-2.36,5.46a73.64,73.64,0,0,1-11.12,3.82s1.89-1.23,1.85-6.6c0-1.14,0-35.44,0-36.75a2.79,2.79,0,0,0,2.6-2.85V143.51a3,3,0,0,0-2.36-2.93V131h14.32c2.93.32,5,1.38,5,5.62v9c0,1,.32,3.82-1.06,5s-1.14,1.06-1.14,1.06a3.81,3.81,0,0,1,2,3.33v9.93c0,1.59.91,2.87,2.28,2.87v26.18Zm7.16-50.94v5c0,.81.51,1.31,1.23,1.87,1.13.89,7,5.61,7,5.61.65.73,2.12,1.47,2.12,4.23,0,2.28.36,9.67-2.85,17.33a68.43,68.43,0,0,1-13.43,20.83v-39.7h5.37v7.64c.09,2.85,4.56,2.53,4.56.41v-5.37c0-.89,0-1.14-.49-1.55s-7.57-6.09-8.13-6.5-.9-1.06-.9-2.69v-15a3.89,3.89,0,0,1,4.19-4.07h7.57c2.93.33,4.51,1.3,4.51,5v10.91H187.3V143a2.24,2.24,0,1,0-4.48-.08Z"/><path class="cls-1" d="M92.59,143.13v22.19c0,3.58,5,3.42,5-.17V143a2.53,2.53,0,1,0-5,.16Z"/><path class="cls-1" d="M162.89,143v4a2,2,0,1,0,4-.13c0-2.61.11-2.33,0-4-.19-3-4-2.87-4,.13Z"/><path class="cls-2" d="M140,80.29c-4.72,11.76-12,16.26-12,24.68a12,12,0,0,0,24,0c0-8.42-7.3-12.92-12-24.68Z"/><path class="cls-1" d="M140,73.24A76.76,76.76,0,1,0,216.76,150,76.85,76.85,0,0,0,140,73.24Zm0,151.32A74.56,74.56,0,1,1,214.56,150,74.63,74.63,0,0,1,140,224.56Z"/><path class="cls-3" d="M144.15,79l8.24,13a23.89,23.89,0,0,1,4.11,12.73c0,9.78-8.67,16.24-16.5,16.24s-16.5-6.46-16.5-16.24A23.89,23.89,0,0,1,127.61,92l8.24-13a71.11,71.11,0,1,0,8.3,0ZM140,214.64A64.64,64.64,0,0,1,123.36,87.53c-2.73,3.8-6.28,9.28-6.28,17,0,11.94,10.1,23.1,22.92,23.1s22.92-11.16,22.92-23.1c0-7.68-3.54-13.16-6.28-17A64.64,64.64,0,0,1,140,214.64Z"/><path class="cls-3" d="M115.21,202.17V167.7c-1.07,0-1.95-1.32-1.95-2.85V143.43a2.68,2.68,0,0,1,2.36-2.85V131H105.53v9.6c1.19,0,2.36.88,2.36,2.85V164.9a2.77,2.77,0,0,1-2.39,2.8v24.55a4.62,4.62,0,0,1-1.87,3.78,3.13,3.13,0,0,1-2.47.36,43.54,43.54,0,0,0,10.56,8.46c1.7,1,3.49-.4,3.49-2.68Z"/><path class="cls-3" d="M133.6,207.46V157.75H129v7c0,2.1-.26,3-2.21,3s-2.07-1.27-2.1-3.17c0-.82,0-20.24,0-21.13,0-1.88,2-2.85,3.17-2.85V131h-10.9v9.6c1.11,0,2.28,1,2.28,2.85v21.42a2.93,2.93,0,0,1-2.77,2.85v35.45a3,3,0,0,1-2.4,2.92A45,45,0,0,0,129,211.41a3.82,3.82,0,0,0,4.65-3.95Z"/><path class="cls-3" d="M152.7,157.81h-5.29v6.64c0,2.45-.26,3.4-2.21,3.4s-2.07-1.35-2.1-3.4c0-.33,0-5.07,0-8.73h5.07v-7h-5.07c0-2.45,0-4.63,0-4.9,0-1.88.34-3.32,2.54-3.32,1.79,0,2,1.63,2,3v3.15h5.11V131h-20.1v9.54c2.78,0,3.91,1.16,3.91,2.85.06,1.46,0,21.42,0,21.42,0,1.64-.63,2.85-1.79,2.85v40c0,3.7-2.76,4.37-2.76,4.37a77.4,77.4,0,0,0,7.82.39,45.58,45.58,0,0,0,7.74-.55c2.88-.47,5.1-2.5,5.1-5.51V157.81Z"/><path class="cls-3" d="M193.56,146.85V135.94c0-3.66-1.58-4.64-4.51-5h-7.57a3.89,3.89,0,0,0-4.19,4.07v15c0,1.63.33,2.28.9,2.69s7.64,6.1,8.13,6.5.49.66.49,1.55v5.37c0,2.12-4.47,2.44-4.56-.41v-7.64h-5.37v39.7A68.43,68.43,0,0,0,190.31,177c3.21-7.66,2.85-15,2.85-17.33,0-2.76-1.47-3.5-2.12-4.23l-7-5.62c-.72-.56-1.23-1.05-1.23-1.86v-5a2.24,2.24,0,1,1,4.48.08v3.83Z"/><path class="cls-3" d="M104.15,190.7V137c0-5.37-4-6.1-6.43-6.1H92.83c-5,0-6.39,4.64-6.39,8.14v24.07A50.43,50.43,0,0,0,99,193.55c2.35,2.7,5.11,1.55,5.11-2.85Zm-6.51-25.55c0,3.59-5,3.75-5,.17V143.13a2.53,2.53,0,1,1,5-.16Z"/><path class="cls-3" d="M173.38,164.83V154.9a3.81,3.81,0,0,0-2-3.33s-.24.08,1.14-1.06,1.06-3.91,1.06-5v-9c0-4.24-2.08-5.3-5-5.62H154.22v9.6a3,3,0,0,1,2.36,2.93v21.34a2.79,2.79,0,0,1-2.6,2.85c0,1.31,0,35.61,0,36.75,0,5.37-1.85,6.6-1.85,6.6a73.64,73.64,0,0,0,11.12-3.82c1.7-.73,2.36-2.94,2.36-5.46v-34a3.1,3.1,0,0,1-3-2.92v-7.59c0-1.38.46-2.84,2.16-2.84,1.4,0,2.19,1.3,2.19,3.17v43.2c.06,3.91-.43,4.66-.6,4.8a40.36,40.36,0,0,0,8-5.65c.9-.82,1.19-2,1.27-6.06V167.7c-1.37,0-2.28-1.28-2.28-2.87Zm-6.46-18a2,2,0,1,1-4,.13v-4c0-3,3.84-3.13,4-.13.11,1.69,0,1.41,0,4Z"/></svg>